<?xml version="1.0" encoding="UTF-8"?>
<svg width="14px" height="13px" viewBox="0 0 14 13" version="1.1" xmlns="http://www.w3.org/2000/svg" xmlns:xlink="http://www.w3.org/1999/xlink">
    <!-- Generator: Sketch 52.5 (67469) - http://www.bohemiancoding.com/sketch -->
    <title>Mask</title>
    <desc>Created with Sketch.</desc>
    <defs>
        <path d="M431.079167,10.5875 L431.079167,10.5875 C430.754614,10.9120523 430.754379,11.438183 431.07864,11.7630257 L435.141667,15.8333333 L425.833333,15.8333333 C425.373096,15.8333333 425,16.2064294 425,16.6666667 L425,16.6666667 C425,17.126904 425.373096,17.5 425.833333,17.5 L435.141667,17.5 L431.07864,21.5703076 C430.754379,21.8951504 430.754614,22.421281 431.079167,22.7458333 L431.079167,22.7458333 C431.403634,23.0703006 431.929699,23.0703006 432.254167,22.7458333 L438.333333,16.6666667 L432.254167,10.5875 C431.929699,10.2630327 431.403634,10.2630327 431.079167,10.5875 Z" id="path-1"></path>
    </defs>
    <g id="Blog_Posts_Author_Return" stroke="none" stroke-width="1" fill="none" fill-rule="evenodd">
        <g id="Blog_Posts_Author_Back" transform="translate(-1072.000000, -1360.000000)">
            <g id="Group-20" transform="translate(575.000000, 1158.000000)">
                <g id="Group-8" transform="translate(72.000000, 192.000000)">
                    <mask id="mask-2" fill="white">
                        <use xlink:href="#path-1"></use>
                    </mask>
                    <use id="Mask" fill="#3F3F3F" transform="translate(431.666667, 16.666667) rotate(-360.000000) translate(-431.666667, -16.666667) " xlink:href="#path-1"></use>
                </g>
            </g>
        </g>
    </g>
</svg>