<svg viewBox="0 0 40 40" xmlns="http://www.w3.org/2000/svg" xmlns:xlink="http://www.w3.org/1999/xlink"><defs><path id="a" d="m28.5227649 31.7327387c-2.3334933-2.0633261-4.8303879-2.6449881-7.4906839-1.7449861-.0023634.0171069 1.3995927-2.0146024 4.0440158-1.4066088 1.6948395.4645362 2.8437289 1.5150678 3.4466681 3.1515949zm.5665544-5.9283761c-1.2904883-.4788672-1.8545479-1.0440588-1.6921786-1.6955748.2435538-.977274 1.1930582-1.4680538 2.3481754-.9366508s1.7802187 1.6653329 1.6744559 2.0897123c-.0446698.1792405-.2716773.6619796-.8833308.7592747-.2358685.0375193-.7182425-.0347345-1.4471219-.2167614z"/><filter id="b" height="259.5%" width="234.6%" x="-67.3%" y="-57%"><feOffset dx="0" dy="2" in="SourceAlpha" result="shadowOffsetOuter1"/><feGaussianBlur in="shadowOffsetOuter1" result="shadowBlurOuter1" stdDeviation="2"/><feColorMatrix in="shadowBlurOuter1" type="matrix" values="0 0 0 0 0   0 0 0 0 0   0 0 0 0 0  0 0 0 0.5 0"/></filter></defs><g fill="none" fill-rule="evenodd"><g transform="translate(5 8)"><path d="m14.2314678 21.1332412c4.3644809-1.8530831 6.3285138-5.910489 5.8920985-12.17221755-.880461-6.90742087-3.2012812-9.34822324-6.9624605-7.3224071-.5000848.28203562-1.1096632.68294379-1.8287351 1.20272452-1.0786079.7796711-2.92137321 1.58271335-3.92429145 1.58271335s-4.67971079-.0625208-5.79573271.63588513-2.55486315 1.92841657-.7712957 6.73456925c.89141971 2.4020954 3.41420857 6.7922972 8.13940336 8.9021546 1.5679443.7001063 3.3182822.8456323 5.2510136.4365778z" fill="#fff"/><path d="m8.35599082 15.434501c3.05252758.6201462 5.50573278-.124567 7.35961568-2.2341397-.0065067-.0159966-.2047817 2.4444933-2.798916 3.2401669-1.7000423.4451196-3.22027547.1097772-4.56069968-1.0060272zm-1.4744092-4.1181314c-.76109024-.0255421-1.25297021-.0882211-1.47563992-.188037-.57742659-.2588424-.68231424-.7789635-.68231424-.9613017 0-.43171379.89227602-1.33820601 2.15795416-1.52837837 1.26567815-.19017236 2.07881851.53421469 2.07881851 1.52837837 0 .6627758-.6929395 1.0458887-2.07881851 1.1493387zm7.56308228-2.27694999c-1.1842804.70153682-1.9784909.7842068-2.3826317.24800992-.6062111-.80429533-.3900762-1.85105656.7498403-2.41432851s2.4145347-.33546185 2.6777808.01380195c.1111843.14751468.3434827.62773015.0341691 1.16430403-.1192789.20691591-.4789984.53632011-1.0791585.98821261z" fill="#333" stroke="#333" stroke-linecap="round" stroke-linejoin="round"/></g><path d="m26.366103 19.5510066c1.6176656.0499059 2.8814567-.0584476 3.7913731-.3250607 1.3648746-.3999195 4.115177-.592346 4.115177 2.3158794s-1.0217484 8.9672854-6.3794659 12.6021519c-3.5718116 2.4232443-6.8695407 1.4125508-9.8931872-3.0320806" stroke="#fff"/><use fill="#000" filter="url(#b)" xlink:href="#a"/><use fill="#fff" fill-rule="evenodd" xlink:href="#a"/></g></svg>