<svg viewBox="0 0 40 40" xmlns="http://www.w3.org/2000/svg"><path d="m32.3125 18.2857143c.9360352 0 1.6875.7633928 1.6875 1.7142857s-.7514648 1.7142857-1.6875 1.7142857h-.1977539l-1.5161133 8.8660714c-.1450195.8169643-.84375 1.4196429-1.6611328 1.4196429h-16.875c-.8173828 0-1.5161133-.6026786-1.6611328-1.4196429l-1.51611329-8.8660714h-.19775391c-.93603516 0-1.6875-.7633928-1.6875-1.7142857s.75146484-1.7142857 1.6875-1.7142857zm-18.918457 10.7142857c.4614258-.0401786.8173828-.4553571.777832-.9241071l-.421875-5.5714286c-.0395508-.46875-.4482422-.8303572-.909668-.7901786s-.8173828.4553572-.777832.9241072l.421875 5.5714285c.0395508.4419643.4086914.7901786.84375.7901786zm5.418457-.8571429v-5.5714285c0-.46875-.3823242-.8571429-.84375-.8571429s-.84375.3883929-.84375.8571429v5.5714285c0 .46875.3823242.8571429.84375.8571429s.84375-.3883929.84375-.8571429zm5.0625 0v-5.5714285c0-.46875-.3823242-.8571429-.84375-.8571429s-.84375.3883929-.84375.8571429v5.5714285c0 .46875.3823242.8571429.84375.8571429s.84375-.3883929.84375-.8571429zm4.640625.0669643.421875-5.5714285c.0395508-.46875-.3164063-.8839286-.777832-.9241072-.4614258-.0401786-.8701172.3214286-.909668.7901786l-.421875 5.5714286c-.0395508.46875.3164062.8839285.777832.9241071h.065918c.4350586 0 .8041992-.3482143.84375-.7901786zm-15.2402344-16.2991071-1.2260742 5.5178571h-1.7402344l1.331543-5.90625c.3427734-1.56696426 1.7006836-2.66517854 3.2827148-2.66517854h2.2016602c0-.46875.3823242-.85714286.84375-.85714286h5.0625c.4614258 0 .84375.38839286.84375.85714286h2.2016602c1.5820312 0 2.9399414 1.09821428 3.2827148 2.66517854l1.331543 5.90625h-1.7402344l-1.2260742-5.5178571c-.1845703-.7901786-.8569336-1.3392857-1.6479492-1.3392857h-2.2016602c0 .46875-.3823242.8571428-.84375.8571428h-5.0625c-.4614258 0-.84375-.3883928-.84375-.8571428h-2.2016602c-.7910156 0-1.4633789.5491071-1.6479492 1.3392857z" fill="#fff" fill-rule="evenodd"/></svg>