<svg viewBox="0 0 23 20" xmlns="http://www.w3.org/2000/svg"><g fill="none" fill-rule="evenodd"><path d="m10.1265188.17358547c-5.09290789-.02615101-8.46841415 2.36077348-10.1265188 7.16077348.02005234-.03723668.6293975 2.03869682 3.34074057 2.21460979-.00716106.00249081-1.41871999 4.68125706 2.27327307 7.56830556 2.4613287 1.924699 5.57327596 2.425632 9.33584176 1.5027989 4.2910312-1.6783266 5.924756-4.7020281 4.9011742-9.07110446-.002387-.00332107 2.3641322-.21460979 3.1489704-2.21460979-.0200026.00723923-1.4852646-7.32154696-10-7.16077348-.0113144.00271006-.4130538-.22147149-1.5-.16422652-.2558742.01347584-.7137013.06821801-1.3734812.16422652z" fill="#7f7773"/><path d="m4.52679225 8.67806255c-.91661895 2.82393825-.6370496 5.05736615.83870804 6.70028365 2.21363645 2.4643763 8.89890381 3.5644265 12.14505881 0-.0203023.048251 2.1544356-2.2548943.8499682-6.51019769-.439188-1.43267535-1.4757917-2.44865476-2.2574827-3.69008596-.5107672-.81116758-1.2993734-2.04308566-2.3658186-3.69575424-1.2183293-.64307774-2.8559273-.64307774-4.91279424 0 .01931653.032188-1.41322998 2.43077275-4.29763951 7.19575424z" fill="#fff"/><g fill="#7f7773"><path d="m11.2768161 15.8476959c.8609921.0735234 1.7594542-.4696003 2.6953863-1.6293711.0027375-.0088631.7464456-.8893486.5823536-2-.0118795-.0048251-.2884652-1.2154491-3.1455873-1.2154491-.007231-.0035639-2.95499894-.1009204-3.38927201 1.2154491-.00573315.0080874-.1683273 1.1304348.54965913 2 .82612428 1.0973005 1.72861108 1.6404242 2.70746028 1.6293711z"/><circle cx="8" cy="8" r="1"/><circle cx="15" cy="8" r="1"/></g></g></svg>