<svg height="20" viewBox="0 0 23 20" width="23" xmlns="http://www.w3.org/2000/svg"><path d="m19.0397457 18.2967446c-1.5426575 2.2264677-4.2508931 3.7032554-7.3341497 3.7032554-2.96405417 0-5.5815243-1.3648063-7.15004587-3.4484252-.02129674.0113435-.04305931.0218971-.06527233.0316211l-2.88224435 1.261734c-.53060653.2322789-1.11730685-.0967697-1.31043183-.7349506-.19312499-.6381808.08045787-1.3438278.6110644-1.5761066l2.51408066-1.1005664c-.04264061-.1232461-.08211945-.2477889-.11834886-.3735477l-2.3354743-.1472116c-.56388583-.0355434-.99704899-.6141524-.96749698-1.2923596.029552-.6782071.51062842-1.199189 1.07451425-1.1636457l1.9514141.1230032c.06915373-1.2069424.42941477-2.3429164 1.01740205-3.3496279-.43834286-4.91954382-.24852545-7.62995465.56945224-8.13123249.80165933-.49127753 2.67594681.85172687 5.62286242 4.0290132.4773708-.07472333.9680063-.11364024 1.4685244-.11364024.5953647 0 1.1767463.05506363 1.738453.15995588 2.97164-3.2105439 4.8602319-4.56898685 5.6657757-4.07532884.845178.51794694 1.0197245 3.39439128.5236394 8.62933299.4261676.8702625.6879169 1.8233235.7488484 2.8257049l1.5417467-.0971807c.5638858-.0355433 1.0449623.4854386 1.0745143 1.1636457.029552.6782072-.4036112 1.2568162-.967497 1.2923596l-1.9167312.120817c-.0098152.0345497-.0198753.0690084-.0301788.1033742l1.7870267.7822905c.5306066.2322789.8041894.9379258.6110644 1.5761067-.1931249.6381808-.7798253.9672294-1.3104318.7349506zm-10.8097457-3.8373688c.67931024 0 1.23-.55055 1.23-1.2296879s-.55068976-1.2296879-1.23-1.2296879-1.23.55055-1.23 1.2296879.55068976 1.2296879 1.23 1.2296879zm7 0c.6793102 0 1.23-.55055 1.23-1.2296879s-.5506898-1.2296879-1.23-1.2296879-1.23.55055-1.23 1.2296879.5506898 1.2296879 1.23 1.2296879z" fill="#727272" fill-rule="evenodd" transform="translate(0 -2)"/></svg>