<svg height="30" width="32" xmlns="http://www.w3.org/2000/svg" xmlns:xlink="http://www.w3.org/1999/xlink"><mask id="a" fill="#fff"><path d="m.00005094.00627089h34.97125776v29.99372911h-34.97125776z" fill="#fff" fill-rule="evenodd"/></mask><mask id="b" fill="#fff"><path d="m0 30h35v-30h-35z" fill="#fff" fill-rule="evenodd"/></mask><g fill="none" fill-rule="evenodd" transform="matrix(-1 0 0 1 33 0)"><path d="m15.0974938 23.2518841c.0025467-.0001617.8526611-.0109164.8734719-.0109164v-.0000809h3.0294283c.0206653 0 .8709251.0109973.8733991.0109973v5.9484906h14.2433992c.4250208 0 .8541164 1.1883558.8541164.6676819v-.1811321c0-.5206738-.4291684-.8609434-.8541164-.8609434h-4.936237v-19.37328838c0-.9358221-.7908108-1.60043126-1.6686486-1.60043126h-4.618472v-7.39293801c-.0032744-.25269542-.1897713-.45493261-.4171621-.45250674h-9.9820583c-.0131704-.00072776-.0264137-.00072776-.0396569 0-.2079626.02571429-.36579.22002696-.3674636.45250674v7.39293801h-4.62851355c-.87776507 0-1.66857588.66460916-1.66857588 1.60043126v19.37328838h-4.93623701c-.42494802 0-.85411642.3403504-.85411642.8609434v.1811321c0 .5206739.42909563-.6676819.85411642-.6676819h14.24332644z" fill="#fff" mask="url(#a)"/><g fill="#3f3f3f"><path d="m9 13h2v-2h-2z" mask="url(#b)" stroke="#3f3f3f"/><path d="m14 13h2v-2h-2z" mask="url(#b)" stroke="#3f3f3f"/><path d="m19 13h2v-2h-2z" mask="url(#b)" stroke="#3f3f3f"/><path d="m24 13h2v-2h-2z" mask="url(#b)" stroke="#3f3f3f"/><path d="m9 18h2v-2h-2z" mask="url(#b)" stroke="#3f3f3f"/><path d="m14 18h2v-2h-2z" mask="url(#b)" stroke="#3f3f3f"/><path d="m19 18h2v-2h-2z" mask="url(#b)" stroke="#3f3f3f"/><path d="m24 18h2v-2h-2z" mask="url(#b)" stroke="#3f3f3f"/><path d="m9 21.0000823v1.9999177h2v-2z" mask="url(#b)" stroke="#3f3f3f"/><path d="m24 21.0000823v1.9999177h2v-2z" mask="url(#b)" stroke="#3f3f3f"/><path d="m16.5327014 2v1.52335811h-1.5327014v1.94394053h1.5327014v1.53270136h1.9439405v-1.53270136h1.5233581v-1.94394053h-1.5233581v-1.52335811z" mask="url(#b)"/></g></g></svg>