<svg height="16" viewBox="0 0 13 16" width="13" xmlns="http://www.w3.org/2000/svg"><path d="m1.09586777 8.95314592h10.80826443v-4.26238287c0-.27844712-.2363636-.53547523-.5371901-.53547523h-9.73388425c-.30082645 0-.53719008.25702811-.53719008.53547523zm4.10413223 3.25568938h2.64297521c.0429752 0 .10743801.0428381.10743801.1070951v.8353414c0 .042838-.06446281.107095-.10743801.107095h-2.64297521c-.04297521 0-.10743802-.064257-.10743802-.107095v-.8353414c0-.064257.06446281-.1070951.10743802-.1070951zm7.8.8781794c0 .5997323-.4942149 1.0923695-1.0958678 1.0923695l-.0214876.8139224c0 .5568942-.4727272 1.0066934-1.0314049 1.0066934h-.5586777c-.5586777 0-1.00991737-.4497992-1.00991737-1.0066934v-.8139224h-5.56528926v.8139224c0 .5568942-.45123967 1.0066934-1.00991735 1.0066934h-.55867769c-.58016529 0-1.03140496-.4497992-1.03140496-1.0066934v-.8139224c-.60165289 0-1.11735537-.4926372-1.11735537-1.0923695v-9.78848726c.10743802-1.82061579 1.65454545-3.29852744 3.52396694-3.29852744h5.95206612c1.86942144 0 3.39504134 1.47791165 3.52396694 3.29852744zm-8.89586777-11.80187414h4.79173554c.17190083 0 .32231405.14993307.32231405.32128514v.59973227c0 .19277108-.15041322.32128514-.32231405.32128514h-4.79173554c-.19338843 0-.32231405-.12851406-.32231405-.32128514v-.59973227c0-.17135207.12892562-.32128514.32231405-.32128514zm6.63966947 10.25970554c-.4512397 0-.81652897.3641231-.81652897.8353413 0 .4497992.36528927.8139224.81652897.8139224.4512396 0 .8165289-.3641232.8165289-.8139224 0-.4712182-.3652893-.8353413-.8165289-.8353413zm-8.48760335 0c.45123967 0 .81652892.3641231.81652892.8353413 0 .4497992-.36528925.8139224-.81652892.8139224s-.81652893-.3641232-.81652893-.8139224c0-.4712182.36528926-.8353413.81652893-.8353413z" fill="#3f3f3f" fill-rule="evenodd"/></svg>