<svg viewBox="0 0 14.58 14.58" xmlns="http://www.w3.org/2000/svg"><path d="m10.44 9.18 4.14 4.14-1.26 1.26-4.14-4.16v-.66l-.24-.22a5 5 0 0 1 -1.61 1 5.53 5.53 0 0 1 -1.89.33 5.44 5.44 0 0 1 -4.7-2.71 5.34 5.34 0 0 1 -.74-2.74 5.27 5.27 0 0 1 .73-2.73 5.42 5.42 0 0 1 2-2 5.36 5.36 0 0 1 2.71-.69 5.34 5.34 0 0 1 2.74.74 5.26 5.26 0 0 1 1.93 2 5.41 5.41 0 0 1 .71 2.72 5.56 5.56 0 0 1 -.33 1.91 5 5 0 0 1 -1 1.61l.22.24zm-5 0a3.61 3.61 0 0 0 1.88-.51 3.8 3.8 0 0 0 1.36-1.37 3.78 3.78 0 0 0 0-3.76 3.72 3.72 0 0 0 -3.24-1.86 3.7 3.7 0 0 0 -1.88.5 3.8 3.8 0 0 0 -1.37 1.36 3.61 3.61 0 0 0 -.51 1.88 3.61 3.61 0 0 0 .51 1.88 3.91 3.91 0 0 0 1.37 1.37 3.61 3.61 0 0 0 1.88.51z" fill="#3f3f3f"/></svg>