<svg height="16" viewBox="0 0 12 16" width="12" xmlns="http://www.w3.org/2000/svg"><path d="m1084 706.304c.336 0 .648-.083999.936-.252s.516-.392999.684-.675.252-.590998.252-.927-.084-.647999-.252-.936-.396-.515999-.684-.684-.6-.252-.936-.252-.645.083999-.927.252-.507.395999-.675.684-.252.599998-.252.936c0 .516003.18.953998.54 1.314s.798.54 1.314.54zm0-7.092c.96 0 1.842.233998 2.646.702.792.468002 1.422 1.097996 1.89 1.89.468.804004.702 1.685995.702 2.646 0 .732004-.18 1.571995-.54 2.52-.312.804004-.744 1.673995-1.296 2.61-.456.744004-.978 1.517996-1.566 2.322-.408.564003-.84 1.115997-1.296 1.656l-.54.63-.54-.63c-.456-.540003-.888-1.091997-1.296-1.656-.588-.804004-1.11-1.577996-1.566-2.322-.552-.936005-.984-1.805996-1.296-2.61-.36-.948005-.54-1.787996-.54-2.52 0-.960005.234-1.841996.702-2.646.468-.792004 1.098-1.421998 1.89-1.89.804-.468002 1.686-.702 2.646-.702z" fill="#3f3f3f" transform="translate(-1078 -699)"/></svg>