<svg viewBox="0 0 38.98 38.98" xmlns="http://www.w3.org/2000/svg"><path d="m12.2 16.16a1.74 1.74 0 0 1 .53 1.29v9.35a1.81 1.81 0 0 1 -1.82 1.82h-1.22a1.81 1.81 0 0 1 -1.83-1.82v-9.35a1.83 1.83 0 0 1 1.83-1.83h1.22a1.76 1.76 0 0 1 1.29.54zm18.41.35v.74s0 0 0 .05a3 3 0 0 1 -.66 1.35.29.29 0 0 0 0 .23 3.79 3.79 0 0 0 .09.4 2.49 2.49 0 0 1 .09.53 2.67 2.67 0 0 1 -.63 1.76.29.29 0 0 0 -.06.33 3 3 0 0 1 .18.73 2.84 2.84 0 0 1 -.66 1.93.3.3 0 0 0 -.05.23 2.84 2.84 0 0 1 .09 1.27 2.56 2.56 0 0 1 -1.85 2.34 5.3 5.3 0 0 1 -1.68.22h-9.87a1.8 1.8 0 0 1 -1.31-.53 1.74 1.74 0 0 1 -.54-1.29c0-1.92 0-5.28 0-10.08a1.42 1.42 0 0 1 .25-.72 4.45 4.45 0 0 1 .61-.76c.41-.44.64-.71.71-.81l1.93-3.3a1.55 1.55 0 0 0 .21-.84c0-.34 0-.83-.06-1.48s0-1 0-1.21a1.4 1.4 0 0 1 .84-1.37 2.94 2.94 0 0 1 2.59-.08 1.62 1.62 0 0 1 .91 1c.51 1.35.81 2.17.91 2.46a5.3 5.3 0 0 1 .11 2.77q-.06.3-.12.66c0 .24-.08.49-.12.77l-.12.68q0 .18 0 .21s.08 0 .2 0h5.74a4 4 0 0 1 1.07.15 1.88 1.88 0 0 1 1.19 1.43c-.05.06-.03.13.01.23z" fill="#fff"/></svg>