<svg height="16" viewBox="0 0 11 16" width="11" xmlns="http://www.w3.org/2000/svg"><path d="m6.6691669 6.55071137-.59923247 2.54617406 2.37814993 2.22708547 1.69512674 3.3081429c.2896215.3770275.2125316.9132113-.17044094 1.1963106-.38375336.2836765-.93003582.2074742-1.21891759-.1685905l-1.66050754-3.3758607-2.62437469-2.37175069-.67211149 2.51843699-2.12767451 3.0582008c-.1957406.4312753-.71116752.6250809-1.14924317.4337483-.43896888-.1917228-.63587108-.6973647-.44063034-1.1275387l2.20483439-3.0613285 1.45205568-6.24619081-1.69802452.74162422c-.00477889.02339699-.58780355 1.89822757-.58780355 1.89822757-.11942468.38318798-.53446595.59838225-.92524098.48118355-.39157182-.11743761-.61199373-.52390671-.49276598-.90646284l.78813873-2.52134419 3.92960253-1.61693377c.32589374-.13035575.68774655-.21461317 1.05978453-.13035575.21128481.04785082.40246034.1358551.56705592.2539088l2.36778823 3.28069912 1.54052649.07919937c.4072363.02093626.7212122.3631446.6997825.76426649-.021386.40030568-.3694773.70929518-.7773861.68832436l-1.94610274-.10005031c-.31306095-.01609462-.4935194-.24765842-.66383309-.49867903zm-.18415373-3.64154281c-.81892683 0-1.48279818-.65123956-1.48279818-1.45458426 0-.80334475.66387135-1.4545843 1.48279818-1.4545843.81892682 0 1.48279822.65123955 1.48279822 1.4545843 0 .8033447-.6638714 1.45458426-1.48279822 1.45458426z" fill="#3f3f3f"/></svg>