<svg viewBox="0 0 40 40" xmlns="http://www.w3.org/2000/svg"><path d="m32.7140151 12.426211-4.8933625 9.2746429c-.6631089 1.1485383-3.7137352.7673949-4.9913584.5402202l-11.1810725 19.3661856c-.5730571.992564-2.45143798-.0919197-1.87838092-1.0844837l11.18107252-19.3661856c-.8355507-.9928668-2.6909438-3.444215-2.0278349-4.5927533l5.5853952-8.8750977c.2865285-.49628197.5810929-.87448859 1.067679-.59355799.486586.28093061.3063317.72513411.0198031 1.22141608l-4.0783467 7.86299441c-.2865286.4962819-.1207666 1.1402581.3658195 1.4211887s1.1271668.1024966 1.4136953-.3937854l4.7703795-7.46344906c.2865285-.49628197.5810928-.87448859 1.0676789-.59355798s.3063317.72513411.0198032 1.22141604l-4.0783468 7.8629944c-.2865285.496282-.1207665 1.1402581.3658196 1.4211887s1.1271668.1024966 1.4136953-.3937853l4.7703795-7.4634491c.2865285-.496282.5810928-.8744886 1.0676789-.593558s.3063317.7251341.0198032 1.2214161zm-22.3327944-3.76108174 17.6943807 30.64756634c.5730571.992564-1.3053238 2.0770477-1.8783809 1.0844838l-8.7874367-15.2202869-1.5570773.8989791c-.2363418.136452-.5676767.0441585-.7068477-.1968927-6.04669914-10.6254016-8.25443776-16.40899557-6.62321582-17.350782l.44488242-.25685298c.48658609-.28093061 1.1271668-.10249663 1.4136953.39378534z" fill="#fff" fill-rule="evenodd"/></svg>