<svg viewBox="0 0 40 40" xmlns="http://www.w3.org/2000/svg"><path d="m30.5658432 24.2857143.4295059 3.8426339c.0245431.2209822-.0490864.4419643-.1963456.6138393-.1472591.1595982-.3681478.2578125-.5890365.2578125h-20.41993398c-.22088871 0-.44177742-.0982143-.58903656-.2578125-.14725914-.171875-.22088871-.3928571-.19634552-.6138393l.42950583-3.8426339zm-1.1412583-10.3002232 1.0553572 9.5145089h-20.95988417l1.05535717-9.5145089c.0490864-.3928572.3804194-.6997768.7853821-.6997768h3.1415283v1.5714286c0 .8716517.6994809 1.5714285 1.5707641 1.5714285.8712833 0 1.5707642-.6997768 1.5707642-1.5714285v-1.5714286h4.7122924v1.5714286c0 .8716517.6994809 1.5714285 1.5707642 1.5714285.8712832 0 1.5707641-.6997768 1.5707641-1.5714285v-1.5714286h3.1415283c.4049627 0 .7362957.3069196.7853821.6997768zm-4.7122924-2.2712054v3.1428572c0 .4296875-.3558763.7857142-.7853821.7857142s-.7853821-.3560267-.7853821-.7857142v-3.1428572c0-1.73102677-1.4112334-3.14285713-3.1415283-3.14285713s-3.1415283 1.41183036-3.1415283 3.14285713v3.1428572c0 .4296875-.3558763.7857142-.7853821.7857142s-.7853821-.3560267-.7853821-.7857142v-3.1428572c0-2.60267856 2.1107144-4.7142857 4.7122925-4.7142857s4.7122925 2.11160714 4.7122925 4.7142857z" fill="#fff" fill-rule="evenodd"/></svg>