<svg viewBox="0 0 38.98 38.98" xmlns="http://www.w3.org/2000/svg"><path d="m19.49 7.62a33 33 0 0 1 5 .31 7.63 7.63 0 0 1 3.6 1.43 4 4 0 0 1 1.38 3.25v11.88a4.25 4.25 0 0 1 -.58 2.19 4.48 4.48 0 0 1 -3.8 2.16l1.91 1.89v.63h-2.53l-2.47-2.52h-4.73l-2.46 2.52h-2.81v-.63l1.89-1.89a4.26 4.26 0 0 1 -2.2-.59 4.49 4.49 0 0 1 -1.61-1.57 4.17 4.17 0 0 1 -.6-2.19v-11.88a3.91 3.91 0 0 1 1.52-3.25 8.15 8.15 0 0 1 3.72-1.43 31 31 0 0 1 4.77-.31zm-1.23 10v-5h-6.26v5zm-4.38 8.78a1.79 1.79 0 0 0 1.32-.53 1.83 1.83 0 0 0 .54-1.35 1.79 1.79 0 0 0 -.54-1.34 1.83 1.83 0 0 0 -1.32-.53 1.88 1.88 0 0 0 -1.33.54 1.81 1.81 0 0 0 -.55 1.3 1.83 1.83 0 0 0 .54 1.33 1.8 1.8 0 0 0 1.34.55zm6.84-8.78h6.28v-5h-6.28zm4.41 8.78a1.79 1.79 0 0 0 1.32-.53 1.83 1.83 0 0 0 .55-1.38 1.79 1.79 0 0 0 -.54-1.34 1.83 1.83 0 0 0 -1.32-.53 1.88 1.88 0 0 0 -1.33.54 1.81 1.81 0 0 0 -.56 1.33 1.83 1.83 0 0 0 .54 1.33 1.8 1.8 0 0 0 1.34.55z" fill="#fff"/></svg>