<?xml version="1.0" encoding="UTF-8"?>
<svg width="12px" height="12px" viewBox="0 0 12 12" version="1.1" xmlns="http://www.w3.org/2000/svg" xmlns:xlink="http://www.w3.org/1999/xlink">
    <!-- Generator: Sketch 52.5 (67469) - http://www.bohemiancoding.com/sketch -->
    <title>Mask</title>
    <desc>Created with Sketch.</desc>
    <defs>
        <path d="M6.83333333,12.8333333 L6.83333333,16.8335258 C6.83333333,17.3857043 6.37790934,17.8333333 5.82537746,17.8333333 L6.17462254,17.8333333 C5.61794388,17.8333333 5.16666667,17.3896167 5.16666667,16.8335258 L5.16666667,12.8333333 L1.16647416,12.8333333 C0.614295728,12.8333333 0.166666667,12.3779093 0.166666667,11.8253775 L0.166666667,12.1746225 C0.166666667,11.6179439 0.610383312,11.1666667 1.16647416,11.1666667 L5.16666667,11.1666667 L5.16666667,7.16647416 C5.16666667,6.61429573 5.62209066,6.16666667 6.17462254,6.16666667 L5.82537746,6.16666667 C6.38205612,6.16666667 6.83333333,6.61038331 6.83333333,7.16647416 L6.83333333,11.1666667 L10.8335258,11.1666667 C11.3857043,11.1666667 11.8333333,11.6220907 11.8333333,12.1746225 L11.8333333,11.8253775 C11.8333333,12.3820561 11.3896167,12.8333333 10.8335258,12.8333333 L6.83333333,12.8333333 Z" id="path-1"></path>
    </defs>
    <g id="Careers" stroke="none" stroke-width="1" fill="none" fill-rule="evenodd">
        <g id="Careers_Prof-Development" transform="translate(-74.000000, -1288.000000)">
            <g id="Group-4" transform="translate(0.000000, 990.000000)">
                <g id="Group-6" transform="translate(74.000000, 292.000000)">
                    <mask id="mask-2" fill="white">
                        <use xlink:href="#path-1"></use>
                    </mask>
                    <use id="Mask" fill="#ECD925" xlink:href="#path-1"></use>
                </g>
            </g>
        </g>
    </g>
</svg>