<?xml version="1.0" encoding="UTF-8"?>
<svg width="14px" height="16px" viewBox="0 0 14 16" version="1.1" xmlns="http://www.w3.org/2000/svg" xmlns:xlink="http://www.w3.org/1999/xlink">
    <!-- Generator: Sketch 52.5 (67469) - http://www.bohemiancoding.com/sketch -->
    <title>Path 5</title>
    <desc>Created with Sketch.</desc>
    <g id="Symbols" stroke="none" stroke-width="1" fill="none" fill-rule="evenodd">
        <g id="Components/Property/Lozenge----Icon" transform="translate(-9.000000, -4.000000)" fill="#FFFFFF">
            <path d="M14.7765581,19.5315889 C12.1999989,16.5492567 12.6078129,14.0466496 16,12.0237676 C16.0081554,12.0256714 14.9246817,13.7795791 17,15.3436547 C18.2821023,16.2604063 18.3490788,17.6563843 17.2009297,19.5315889 C18.346655,19.2187347 19.1254066,18.9209547 19.5371843,18.6382491 C23.1104402,16.1850329 23.067433,12.9531378 19.7576806,9.62149324 C19.7641398,9.6170738 19.3917506,10.3453983 18.5615068,10.8836188 C18.568306,10.873556 20.7837432,5.49576665 14.8918716,4.5 C14.8994866,4.50343589 16.0884534,7.25375855 13.2268287,9.62149324 C9.17997681,12.3808588 8.83505557,15.5486496 11.1924561,17.794883 C11.7719247,18.4932459 12.9666253,19.0721479 14.7765581,19.5315889 Z" id="Path-5"></path>
        </g>
    </g>
</svg>