<?xml version="1.0" encoding="UTF-8"?>
<svg width="71px" height="68px" viewBox="0 0 71 68" version="1.1" xmlns="http://www.w3.org/2000/svg" xmlns:xlink="http://www.w3.org/1999/xlink">
    <!-- Generator: Sketch 52.5 (67469) - http://www.bohemiancoding.com/sketch -->
    <title>icons-03</title>
    <desc>Created with Sketch.</desc>
    <g id="Careers" stroke="none" stroke-width="1" fill="none" fill-rule="evenodd">
        <g id="Careers-Culture" transform="translate(-844.000000, -1358.000000)">
            <g id="icons-03" transform="translate(844.000000, 1358.000000)">
                <path d="M44.9053817,33 L27.0946183,33 C26.4902185,33 26,33.4988933 26,34.1139885 C26,34.7290837 26.4902185,35.227977 27.0946183,35.227977 L30.5444165,35.227977 L30.5444165,47 L32.733653,47 L32.733653,35.227977 L39.2617797,35.227977 L39.2617797,47 L41.4510162,47 L41.4510162,35.227977 L44.9053817,35.227977 C45.5097815,35.227977 46,34.7290837 46,34.1139885 C46,33.4988933 45.5097815,33 44.9053817,33 Z" id="Path" fill="#ECD925"></path>
                <g id="Group">
                    <path d="M36.0891489,16.7763556 C26.4165319,16.7763556 18.5461064,24.6522667 18.5461064,34.3324444 C18.5461064,39.9054222 21.1821702,45.1081778 25.631,48.416 L25.631,60.2736889 C25.631,60.8736 26.1174255,61.3601778 26.7171489,61.3601778 L28.4619362,61.3601778 C28.9921702,65.1016889 32.2052979,67.9909333 36.0891489,67.9909333 C39.9745106,67.9909333 43.1906596,65.1016889 43.7208936,61.3601778 L45.2587234,61.3601778 C45.8584468,61.3601778 46.3448723,60.8736 46.3448723,60.2736889 L46.3448723,48.5671111 C50.9175745,45.2638222 53.638234,39.9824889 53.638234,34.3324444 C53.6367234,24.6522667 45.7647872,16.7763556 36.0891489,16.7763556 Z M36.0891489,65.8194667 C33.4047447,65.8194667 31.1614468,63.9003556 30.6568936,61.3601778 L41.5274468,61.3601778 C41.0198723,63.8988444 38.7750638,65.8194667 36.0891489,65.8194667 Z M44.1725745,59.1872 L27.8032979,59.1872 L27.8032979,48.9418667 L44.1725745,48.9418667 L44.1725745,59.1872 Z M39.2237234,46.7704 L32.7461064,46.7704 L39.2237234,46.7704 Z M30.5738085,46.7704 L27.0585532,46.7704 C23.0810426,43.8766222 20.7168936,39.2722667 20.7168936,34.3339556 C20.7168936,25.8520889 27.6129574,18.9508444 36.0876383,18.9508444 C44.5653404,18.9508444 51.4644255,25.8520889 51.4644255,34.3339556 C51.4644255,39.2647111 49.1017872,43.8720889 45.1242766,46.7704 L41.3945106,46.7704 L30.5738085,46.7704 Z" id="Shape" fill="#3F3F3F" fill-rule="nonzero"></path>
                    <path d="M35.9849149,13.1270222 C36.5846383,13.1270222 37.0710638,12.6404444 37.0710638,12.0405333 L37.0710638,1.08648889 C37.0710638,0.486577778 36.5846383,0 35.9849149,0 C35.3851915,0 34.898766,0.486577778 34.898766,1.08648889 L34.898766,12.0405333 C34.898766,12.6404444 35.3851915,13.1270222 35.9849149,13.1270222 Z" id="Path" fill="#4C698F"></path>
                    <path d="M12.0684894,33.116 L1.11787234,33.116 C0.518148936,33.116 0.0317234043,33.6025778 0.0317234043,34.2024889 C0.0317234043,34.8024 0.518148936,35.2889778 1.11787234,35.2889778 L12.0684894,35.2889778 C12.6682128,35.2889778 13.1546383,34.8024 13.1546383,34.2024889 C13.1546383,33.6025778 12.6697234,33.116 12.0684894,33.116 Z" id="Path" fill="#4C698F"></path>
                    <path d="M69.8911915,33.116 L58.9451064,33.116 C58.345383,33.116 57.8589574,33.6025778 57.8589574,34.2024889 C57.8589574,34.8024 58.345383,35.2889778 58.9451064,35.2889778 L69.8911915,35.2889778 C70.4909149,35.2889778 70.9773404,34.8024 70.9773404,34.2024889 C70.9773404,33.6025778 70.4909149,33.116 69.8911915,33.116 Z" id="Path" fill="#4C698F"></path>
                    <path d="M18.7001915,18.6803556 C18.9056383,18.8601778 19.1609362,18.9478222 19.4147234,18.9478222 C19.7168511,18.9478222 20.0189787,18.8224 20.2334894,18.5760889 C20.627766,18.1242667 20.5809362,17.4382222 20.1292553,17.0438222 L11.8811702,9.84186667 C11.4294894,9.44746667 10.7436596,9.49431111 10.349383,9.94613333 C9.95510638,10.3979556 10.0019362,11.084 10.453617,11.4784 L18.7001915,18.6803556 Z" id="Path" fill="#4C698F"></path>
                    <path d="M50.694,18.9493333 C50.9477872,18.9493333 51.2015745,18.8616889 51.4070213,18.6818667 L59.6596383,11.4799111 C60.1113191,11.0855111 60.1581489,10.3994667 59.7638723,9.94613333 C59.3711064,9.49431111 58.683766,9.44595556 58.2320851,9.84186667 L49.9794681,17.0438222 C49.5277872,17.4382222 49.4809574,18.1242667 49.875234,18.5776 C50.0897447,18.8239111 50.3903617,18.9493333 50.694,18.9493333 Z" id="Path" fill="#4C698F"></path>
                </g>
            </g>
        </g>
    </g>
</svg>