<?xml version="1.0" encoding="UTF-8"?>
<svg width="23px" height="23px" viewBox="0 0 23 23" version="1.1" xmlns="http://www.w3.org/2000/svg" xmlns:xlink="http://www.w3.org/1999/xlink">
    <!-- Generator: Sketch 52.5 (67469) - http://www.bohemiancoding.com/sketch -->
    <title>UI/Icons/ Cat</title>
    <desc>Created with Sketch.</desc>
    <g id="UI/Icons/-Cat" stroke="none" stroke-width="1" fill="none" fill-rule="evenodd">
        <path d="M18.6734165,16.988459 C17.1645674,18.7990548 14.5156848,20 11.5,20 C8.60090525,20 6.04079888,18.8901198 4.50665261,17.1956907 C4.4858226,17.2049154 4.46453697,17.2134977 4.44281077,17.2214054 L1.62373291,18.2474658 C1.104755,18.4363583 0.530912653,18.1687712 0.342020143,17.6497933 C0.153127634,17.1308154 0.420714717,16.5569731 0.939692621,16.3680806 L3.39867537,15.473084 C3.35696926,15.3728586 3.31835563,15.2715786 3.28292022,15.1693096 L0.998629535,15.049595 C0.447101672,15.0206907 0.0234316057,14.5501574 0.0523359562,13.9986295 C0.0812403067,13.4471017 0.551773584,13.0234316 1.10330145,13.052336 L3.01194888,13.1523639 C3.07958705,12.1708609 3.43195272,11.2470704 4.00705383,10.428398 C3.57831757,6.42775374 3.76397499,4.2236084 4.5640261,3.815962 C5.34811648,3.41644799 7.18132758,4.50859863 10.0636594,7.09241389 C10.5305683,7.0316478 11.0104511,7 11.5,7 C12.0823168,7 12.6509571,7.04477855 13.2003535,7.13007844 C16.1068679,4.51921764 17.9540699,3.41451216 18.7419596,3.815962 C19.568615,4.23716395 19.7393362,6.57633016 19.2541231,10.8334606 C19.6709509,11.5411706 19.9269638,12.3162136 19.9865599,13.1313647 L21.4945181,13.052336 C22.046046,13.0234316 22.5165793,13.4471017 22.5454836,13.9986295 C22.574388,14.5501574 22.1507179,15.0206907 21.5991901,15.049595 L19.7244654,15.1478452 C19.7148654,15.1759415 19.7050257,15.2039638 19.6949481,15.2319106 L21.4428108,15.8680806 C21.9617887,16.0569731 22.2293758,16.6308154 22.0404832,17.1497933 C21.8515907,17.6687712 21.2777484,17.9363583 20.7587705,17.7474658 L18.6734165,16.988459 Z M8,14 C8.55228475,14 9,13.5522847 9,13 C9,12.4477153 8.55228475,12 8,12 C7.44771525,12 7,12.4477153 7,13 C7,13.5522847 7.44771525,14 8,14 Z M15,14 C15.5522847,14 16,13.5522847 16,13 C16,12.4477153 15.5522847,12 15,12 C14.4477153,12 14,12.4477153 14,13 C14,13.5522847 14.4477153,14 15,14 Z" id="Shape" fill="#727272"></path>
    </g>
</svg>