<?xml version="1.0" encoding="UTF-8"?>
<svg width="93px" height="66px" viewBox="0 0 93 66" version="1.1" xmlns="http://www.w3.org/2000/svg" xmlns:xlink="http://www.w3.org/1999/xlink">
    <!-- Generator: Sketch 52.5 (67469) - http://www.bohemiancoding.com/sketch -->
    <title>icons-04</title>
    <desc>Created with Sketch.</desc>
    <g id="Careers" stroke="none" stroke-width="1" fill="none" fill-rule="evenodd">
        <g id="Careers-Culture" transform="translate(-674.000000, -1570.000000)">
            <g id="icons-04" transform="translate(674.000000, 1570.000000)">
                <path d="M6.01010051,50 C5.78350476,50 5.56542766,49.9277108 5.3814251,49.7934596 C5.05601316,49.5542169 4.88734415,49.1394148 4.95549324,48.7366609 L6.38151309,40.3080895 L0.321354683,34.3390706 C0.0334247503,34.0533563 -0.0739100767,33.6196213 0.0521657518,33.232358 C0.179945308,32.83821 0.510468425,32.555938 0.915955549,32.4974182 L9.28977578,31.2667814 L13.0413835,23.6006885 C13.2202749,23.2358003 13.5967987,23 14.0005821,23 C14.4043655,23 14.7791855,23.2358003 14.9580769,23.6006885 L18.7062772,31.2667814 L27.0835049,32.4974182 C27.488992,32.555938 27.8195151,32.83821 27.9472947,33.232358 C28.0733705,33.626506 27.9694431,34.0516351 27.676402,34.3390706 L21.6145399,40.3080895 L23.0439672,48.7366609 C23.1121163,49.1445783 22.9502622,49.5507745 22.6180353,49.7934596 C22.4340328,49.9277108 22.2159556,49.9982788 21.9893599,49.9982788 C21.8172834,49.9982788 21.645207,49.9552496 21.4918715,49.8743546 L14.0005821,45.8950086 L6.50929264,49.8743546 C6.35425345,49.9569707 6.18217698,50 6.01010051,50 Z M10.9577249,32.7314974 C10.8026857,33.0499139 10.501126,33.2702238 10.1535656,33.3218589 L3.36591557,34.3201377 L8.27776169,39.1583477 C8.52991335,39.4061962 8.64406309,39.7641997 8.58443263,40.1135972 L7.42760172,46.9449225 L13.5013899,43.7177281 C13.6530217,43.636833 13.8250981,43.5938038 13.9988783,43.5938038 C14.1709548,43.5938038 14.344735,43.636833 14.4980705,43.7177281 L20.570155,46.9432014 L19.4099166,40.1135972 C19.3502861,39.7624785 19.4661396,39.4061962 19.7182913,39.1566265 L24.6318411,34.3184165 L17.8424874,33.3201377 C17.4932233,33.2685026 17.1933672,33.0481928 17.038328,32.7297762 L14.0005821,26.5146299 L10.9577249,32.7314974 Z" id="Shape" fill="#ECD925" fill-rule="nonzero"></path>
                <path d="M53.920666,66 C53.4562842,66 53.0435003,65.7041154 52.897306,65.263729 C46.684909,46.6952494 27.046717,42.1778484 26.8489247,42.1348419 C26.2675875,42.0075427 25.8978019,41.4312558 26.0250769,40.8498081 C26.1334327,40.3578139 26.5720155,40 27.070796,40 C27.1499129,40 27.2290299,40.0086013 27.3064268,40.0275241 C28.1663932,40.2150324 48.3343245,44.8253275 54.944026,64.5790658 C55.1332186,65.1433108 54.8270706,65.7557232 54.2629326,65.9449517 C54.1528569,65.9810771 54.0376214,66 53.920666,66 Z" id="Path" fill="#3F3F3F"></path>
                <path d="M57.990005,57 C57.7969601,57 57.6087414,56.9413234 57.4446533,56.8274218 C51.3235229,52.6096099 47.7489759,44.8470412 47.1071018,34.3784459 C46.6277071,26.5641037 47.9098466,20.1234843 47.9645426,19.8525364 C48.0642825,19.3589627 48.4809376,19 48.9538975,19 C49.0246806,19 49.0954637,19.0086289 49.1646381,19.024161 C49.7083811,19.1501431 50.0542531,19.7282801 49.9368175,20.3115945 C49.8869475,20.5652845 45.0350871,45.7030292 58.5353567,55.0067215 C58.7621843,55.1637677 58.9198376,55.4036514 58.9761424,55.6866797 C59.0340558,55.969708 58.9857946,56.2596394 58.8394023,56.5029747 C58.6527923,56.8136155 58.335877,57 57.990005,57 Z" id="Path" fill="#3F3F3F"></path>
                <path d="M54.8353236,20 C54.5257675,20 54.2302027,19.8732359 54.022083,19.650131 L50.0783034,15.4331108 L44.243958,16.1903152 C44.1967376,16.197076 44.1495172,16.1987662 44.1005479,16.1987662 C44.1005479,16.1987662 44.1005479,16.1987662 44.1005479,16.1987662 C43.7332779,16.1987662 43.3922416,16.0246768 43.1876197,15.7322741 C42.9532665,15.3942365 42.9375264,14.9649286 43.145646,14.6133694 L46.0715632,9.67463872 L43.5269072,4.54660695 C43.34677,4.18490662 43.3957394,3.74714781 43.6528283,3.43277275 C43.859199,3.1775543 44.1809975,3.02543734 44.5132893,3.02543734 C44.5884922,3.02543734 44.665444,3.03388828 44.738898,3.04909997 L50.5015383,4.21871039 L54.7636185,0.294092791 C54.9699893,0.104791684 55.2375717,0 55.5208942,0 C55.6503131,0 55.7762342,0.0219724499 55.8986576,0.0659173498 C56.29391,0.206202992 56.568488,0.544240683 56.6139595,0.949885912 L57.245314,6.60694667 L62.4238202,9.30786783 C62.794588,9.50054931 63.0149499,9.87408096 62.9992098,10.2797262 C62.9834696,10.6853714 62.7351252,11.040311 62.3521151,11.2076397 L56.9777316,13.5400997 L55.9161466,19.1312431 C55.8409437,19.5318178 55.541881,19.8495732 55.1378841,19.9594355 C55.0381966,19.9864785 54.9367601,20 54.8353236,20 Z M50.506785,13.2493873 C50.8163411,13.2493873 51.111906,13.3761514 51.3200256,13.5975661 L54.1602465,16.6331446 L54.9245178,12.6088059 C54.9892272,12.2656976 55.2253293,11.9766754 55.5541234,11.8330094 L59.4261979,10.1529621 L55.6957846,8.20755514 C55.3792329,8.04191667 55.1658666,7.73430237 55.1273907,7.38781374 L54.6726755,3.31276937 L51.6015992,6.14045466 C51.3952285,6.32975577 51.1258972,6.43285726 50.8425747,6.43285726 C50.7673718,6.43285726 50.6921689,6.42440632 50.6187149,6.41088481 L46.4703135,5.56917096 L48.3031654,9.26223274 C48.4588179,9.5749176 48.4448266,9.94337869 48.2646895,10.2476126 L46.1590085,13.8054593 L50.3633748,13.2595284 C50.4070975,13.2510775 50.4560668,13.2493873 50.506785,13.2493873 Z" id="Shape" fill="#4C698F" fill-rule="nonzero"></path>
                <path d="M83.2091332,31 C83.0717203,31 82.9326908,30.9642567 82.8098276,30.8992689 C82.5236855,30.7449228 82.3523236,30.4476036 82.3620233,30.1210398 L82.4848866,26.2071487 L79.3470235,23.8968318 C79.088364,23.7067425 78.9574176,23.378554 79.0123828,23.0633631 C79.0673479,22.7465475 79.3017581,22.4833469 79.6105329,22.3923639 L83.3481627,21.2940699 L84.5719454,17.5832656 C84.6737926,17.2729488 84.937302,17.0519903 85.2606264,17.0064988 C85.2945754,17.0016247 85.3333743,17 85.3721733,17 C85.6566987,17 85.9218247,17.1397238 86.078637,17.3720552 L88.2626932,20.6035743 L92.1571353,20.6230707 C92.4772265,20.6246954 92.7746849,20.81316 92.915331,21.1023558 C93.0559771,21.3915516 93.0187948,21.7441105 92.8231835,21.997563 L90.435433,25.0893582 L91.6204169,28.8196588 C91.7174142,29.1267262 91.6317332,29.469537 91.4021729,29.6921202 C91.243744,29.8464663 91.0335831,29.9309504 90.8137225,29.9309504 C90.7167252,29.9309504 90.6197279,29.9147035 90.5275805,29.8805849 L86.8675485,28.5597076 L83.7054361,30.8391552 C83.5583235,30.9447604 83.3869616,31 83.2091332,31 Z M84.8160553,22.2542648 C84.7287578,22.5190902 84.5169803,22.7254265 84.2486211,22.8034119 L81.734774,23.5426483 L83.8460822,25.0991064 C84.0724093,25.2648253 84.201739,25.5329001 84.1920393,25.8123477 L84.107975,28.4476036 L86.237066,26.9138911 C86.3825619,26.8099106 86.5523072,26.7530463 86.7317523,26.7530463 C86.8287496,26.7530463 86.9257469,26.7692933 87.0178943,26.8034119 L89.4800095,27.6904955 L88.6813983,25.1787165 C88.5957173,24.9106418 88.6474492,24.6198213 88.8188111,24.397238 L90.4257333,22.3160032 L87.8051892,22.3030057 C87.5255136,22.301381 87.2652375,22.1616572 87.1084252,21.9293258 L85.6389159,19.7538587 L84.8160553,22.2542648 Z" id="Shape" fill="#3F3F3F" fill-rule="nonzero"></path>
                <path d="M61.088546,50 C60.4878491,50 60,49.5105692 60,48.9079249 C60,41.3243607 61.9809106,35.6497506 65.8906482,32.0408519 C69.8403166,28.3936347 74.5278351,28 76.3577034,28 C76.7570106,28 76.9896504,28.0191592 76.998331,28.020901 C77.2899988,28.0452854 77.5538887,28.1811416 77.7413894,28.4040852 C77.9288902,28.6270287 78.0191683,28.9091917 77.9965988,29.2018051 C77.9497236,29.7730979 77.4879162,30.2050511 76.925414,30.2050511 C76.8924278,30.2050511 76.8611776,30.2033093 76.8281914,30.2015676 L76.8090941,30.1998258 C76.7761079,30.1980841 76.6372184,30.1893753 76.4063147,30.1893753 C75.1580459,30.1893753 70.8160149,30.4419286 67.3333623,33.6798353 C63.9132099,36.8602644 62.178828,41.9827409 62.178828,48.9079249 C62.1770919,49.5105692 61.6875067,50 61.088546,50 Z" id="Path" fill="#3F3F3F"></path>
            </g>
        </g>
    </g>
</svg>