<?xml version="1.0" encoding="UTF-8"?>
<svg width="55px" height="69px" viewBox="0 0 55 69" version="1.1" xmlns="http://www.w3.org/2000/svg" xmlns:xlink="http://www.w3.org/1999/xlink">
    <!-- Generator: Sketch 52.5 (67469) - http://www.bohemiancoding.com/sketch -->
    <title>icons-02</title>
    <desc>Created with Sketch.</desc>
    <g id="Careers" stroke="none" stroke-width="1" fill="none" fill-rule="evenodd">
        <g id="Careers-Culture" transform="translate(-522.000000, -1357.000000)">
            <g id="icons-02" transform="translate(522.000000, 1357.000000)">
                <path d="M0,68.3730972 L0,0.626902833 C0,0.280297901 0.280928189,0 0.628312509,0 L54.3716875,0 C54.7190718,0 55,0.280297901 55,0.626902833 L55,68.3730972 C55,68.7197021 54.7190718,69 54.3716875,69 L0.628312509,69 C0.280928189,69 0,68.7197021 0,68.3730972 Z M2.5464781,67.084631 L52.4505012,67.084631 C52.7978855,67.084631 53.0788137,66.8043331 53.0788137,66.4577282 L53.0788137,2.54227182 C53.0788137,2.19566689 52.7978855,1.91536899 52.4505012,1.91536899 L2.5464781,1.91536899 C2.19909378,1.91536899 1.91816559,2.19566689 1.91816559,2.54227182 L1.91816559,66.4577282 C1.91816559,66.8043331 2.19909378,67.084631 2.5464781,67.084631 Z" id="Shape" fill="#3F3F3F" fill-rule="nonzero"></path>
                <path d="M33.6671653,60 C33.3094284,60 32.9821372,59.8027815 32.8131636,59.4847857 L27.5019125,49.4465158 L22.1921836,59.4847857 C22.0247323,59.8027815 21.6974411,60 21.338182,60 C21.2925134,60 21.2438003,59.9969423 21.1950872,59.9892982 C20.7916818,59.929674 20.4674352,59.6177936 20.3882763,59.2141836 L19.4307593,54.2607881 L14.1758327,55.4272821 C14.1088522,55.4425704 14.0388271,55.4502145 13.968802,55.4502145 C13.6445554,55.4502145 13.343143,55.2896878 13.1635135,55.0190857 C12.9412599,54.6842728 12.9458268,54.253144 13.1756917,53.9229176 L19.7747956,44.4380826 L19.6499683,44.2622676 C18.4838983,42.6141934 17.8658507,40.6832865 17.8658507,38.6774671 C17.8658507,33.3418652 22.1876168,29 27.5019125,29 C32.8146859,29 37.1364519,33.3418652 37.1364519,38.6774671 C37.1364519,40.6832865 36.5199267,42.6141934 35.3538566,44.2607388 L35.2290293,44.4365537 L41.8250886,53.9213888 C42.0549536,54.2516151 42.0579982,54.682744 41.8357446,55.0175568 C41.656115,55.2866302 41.3547027,55.4486857 41.030456,55.4486857 C41.030456,55.4486857 41.030456,55.4486857 41.030456,55.4486857 C40.960431,55.4486857 40.8904059,55.4410416 40.8219031,55.4257533 L35.5745879,54.2607881 L34.6140263,59.2141836 C34.5363898,59.6177936 34.2121432,59.9281452 33.8072154,59.9892982 C33.7615469,59.9969423 33.7158784,60 33.6671653,60 Z M33.6412864,46.1243774 C32.4280256,47.1334024 30.9788106,47.8351334 29.4473922,48.1500715 L29.0485537,48.2326281 L33.2394033,56.1519456 L33.8681068,52.9123638 C33.9168199,52.6570499 34.0705707,52.427726 34.2867351,52.2855452 C34.4435304,52.181585 34.6277269,52.1280761 34.8180124,52.1280761 C34.8880375,52.1280761 34.9580626,52.1357203 35.0265654,52.1510085 L38.8200988,52.9949204 L33.8955079,45.9133994 L33.6412864,46.1243774 Z M20.1919016,52.1265473 C20.3821872,52.1265473 20.5648614,52.181585 20.723179,52.2855452 C20.9393434,52.4292548 21.0930941,52.6570499 21.1418072,52.9123638 L21.7674662,56.1488879 L25.9567936,48.2310993 L25.557955,48.1485427 C24.0280589,47.8320758 22.5773217,47.1318736 21.3640608,46.1228485 L21.1098393,45.9118706 L16.1837262,52.9918627 L19.9848709,52.1479509 C20.0518514,52.1341914 20.1218765,52.1265473 20.1919016,52.1265473 Z M27.5019125,30.9416087 C23.2562606,30.9416087 19.8021968,34.4120432 19.8006745,38.6759383 C19.8006745,42.9383045 23.2547383,46.4056813 27.5019125,46.4056813 C31.7475643,46.4056813 35.2016282,42.9383045 35.2016282,38.6759383 C35.2016282,34.4105144 31.7475643,30.9416087 27.5019125,30.9416087 Z" id="Shape" fill="#4C698F" fill-rule="nonzero"></path>
                <path d="M11.9722953,18 C11.4363845,18 11,17.5511811 11,17 C11,16.4488189 11.4363845,16 11.9722953,16 L42.0277047,16 C42.5636155,16 43,16.4488189 43,17 C43,17.5511811 42.5636155,18 42.0277047,18 L11.9722953,18 Z" id="Path" fill="#ECD925"></path>
            </g>
        </g>
    </g>
</svg>