<?xml version="1.0" encoding="UTF-8"?>
<svg width="91px" height="50px" viewBox="0 0 91 50" version="1.1" xmlns="http://www.w3.org/2000/svg" xmlns:xlink="http://www.w3.org/1999/xlink">
    <!-- Generator: Sketch 52.5 (67469) - http://www.bohemiancoding.com/sketch -->
    <title>icons-01</title>
    <desc>Created with Sketch.</desc>
    <g id="Careers" stroke="none" stroke-width="1" fill="none" fill-rule="evenodd">
        <g id="Careers-Culture" transform="translate(-174.000000, -1376.000000)">
            <g id="icons-01" transform="translate(174.000000, 1376.000000)">
                <path d="M25.1317654,50 C24.5083203,50 24,49.483409 24,48.84982 C24,36.8026295 33.6456875,27 45.5,27 C57.3543125,27 67,36.8008296 67,48.84982 C67,49.483409 66.4916797,50 65.8682346,50 L25.1317654,50 Z M45.5017712,29.30036 C40.6364198,29.30036 35.98892,31.1579277 32.4165088,34.532869 C28.8635802,37.8880106 26.6992339,42.4275317 26.3237499,47.3126467 L26.2936403,47.70144 L64.7081308,47.70144 L64.6780213,47.3126467 C64.3025373,42.4275317 62.138191,37.8880106 58.5852624,34.532869 C55.0146223,31.1579277 50.3671225,29.30036 45.5017712,29.30036 Z" id="Shape" fill="#4C698F" fill-rule="nonzero"></path>
                <path d="M44.5,25 C37.6076093,25 32,19.3923907 32,12.5 C32,5.60760931 37.6076093,0 44.5,0 C51.3923907,0 57,5.60760931 57,12.5 C57,19.3923907 51.3923907,25 44.5,25 Z M44.5,2.26788756 C38.8568995,2.26788756 34.2678876,6.85867405 34.2678876,12.5 C34.2678876,18.141326 38.858674,22.7321124 44.5,22.7321124 C50.141326,22.7321124 54.7321124,18.141326 54.7321124,12.5 C54.7321124,6.85867405 50.1431005,2.26788756 44.5,2.26788756 Z" id="Shape" fill="#4C698F" fill-rule="nonzero"></path>
                <path d="M1.12811169,50 C0.506679273,50 0,49.4743055 0,48.8295512 C0,39.5502188 7.27711486,32 16.2207985,32 C19.1161086,32 21.9584557,32.8022794 24.44242,34.3170856 C24.7019386,34.4764425 24.8873091,34.7292154 24.9632227,35.031444 C25.0391363,35.3336725 24.996766,35.6487229 24.8431733,35.9179811 C24.6419139,36.2751603 24.2676421,36.4949629 23.8704197,36.4949629 C23.6709258,36.4949629 23.4731973,36.4381805 23.3001848,36.3319426 C21.16048,35.0259489 18.7118244,34.3372342 16.219033,34.3372342 C9.07609109,34.3372342 3.10716209,39.8890811 2.33566787,47.250636 L2.29329748,47.6572708 L19.8946646,47.6572708 C20.516097,47.6572708 21.0227763,48.1829653 21.0227763,48.8277195 C21.0227763,49.4724738 20.516097,49.9981683 19.8946646,49.9981683 L1.12811169,49.9981683 L1.12811169,50 Z" id="Path" fill="#ECD925"></path>
                <path d="M15.5,29 C10.2626852,29 6,24.7390741 6,19.5 C6,14.2626852 10.2609259,10 15.5,10 C20.7373148,10 25,14.2609259 25,19.5 C25,24.7390741 20.7373148,29 15.5,29 Z M15.5,12.2483333 C11.5012037,12.2483333 8.24833333,15.5012037 8.24833333,19.5 C8.24833333,23.4987963 11.5012037,26.7516667 15.5,26.7516667 C19.4987963,26.7516667 22.7516667,23.4987963 22.7516667,19.5 C22.7516667,15.5012037 19.4987963,12.2483333 15.5,12.2483333 Z" id="Shape" fill="#ECD925" fill-rule="nonzero"></path>
                <path d="M71.1053354,49.9981683 C70.483903,49.9981683 69.9772237,49.4724738 69.9772237,48.8277195 C69.9772237,48.1829653 70.483903,47.6572708 71.1053354,47.6572708 L88.7049371,47.6572708 L88.6625667,47.250636 C87.8910725,39.8890811 81.9221435,34.3372342 74.7792015,34.3372342 C72.2881756,34.3372342 69.83952,35.0277806 67.6998152,36.3319426 C67.5268027,36.4381805 67.3290742,36.4949629 67.1295803,36.4949629 C66.7305924,36.4949629 66.3580861,36.2733286 66.1568267,35.9179811 C66.003234,35.6487229 65.9608637,35.3336725 66.0367773,35.031444 C66.1126909,34.7292154 66.2962959,34.4746108 66.55758,34.3170856 C69.0450751,32.8004477 71.8874223,32 74.7792015,32 C83.7228851,32 91,39.5502188 91,48.8295512 C91,49.4743055 90.4933207,50 89.8718883,50 L71.1053354,50 L71.1053354,49.9981683 Z" id="Path" fill="#3F3F3F"></path>
                <path d="M75.5,29 C70.2626852,29 66,24.7390741 66,19.5 C66,14.2626852 70.2626852,10 75.5,10 C80.7373148,10 85,14.2609259 85,19.5 C85,24.7390741 80.7373148,29 75.5,29 Z M75.5,12.2483333 C71.5012037,12.2483333 68.2483333,15.5012037 68.2465741,19.5 C68.2465741,23.4987963 71.4994444,26.7516667 75.5,26.7516667 C79.4987963,26.7516667 82.7516667,23.4987963 82.7516667,19.5 C82.7516667,15.5012037 79.4987963,12.2483333 75.5,12.2483333 Z" id="Shape" fill="#3F3F3F" fill-rule="nonzero"></path>
            </g>
        </g>
    </g>
</svg>