<?xml version="1.0" encoding="UTF-8"?>
<svg width="64px" height="64px" viewBox="0 0 64 64" version="1.1" xmlns="http://www.w3.org/2000/svg" xmlns:xlink="http://www.w3.org/1999/xlink">
    <!-- Generator: Sketch 52.5 (67469) - http://www.bohemiancoding.com/sketch -->
    <title>icons-07</title>
    <desc>Created with Sketch.</desc>
    <g id="Careers" stroke="none" stroke-width="1" fill="none" fill-rule="evenodd">
        <g id="Careers-Culture" transform="translate(-1018.000000, -1572.000000)">
            <g id="icons-07" transform="translate(1018.000000, 1572.000000)">
                <path d="M21.6362704,64 C21.3428925,64 21.0594355,63.8797349 20.8581811,63.6699702 L11.2730836,53.6711862 L1.07005006,53.6711862 C0.479042277,53.6711862 0,53.197118 0,52.6153706 L0,19.0558157 C0,18.4726698 0.480459562,18 1.07005006,18 L20.1112719,18 L20.1112719,20.1130297 L2.14010011,20.1130297 L2.14010011,51.5595549 L11.7337012,51.5595549 C12.0256619,51.5595549 12.3091189,51.67982 12.5117906,51.8895847 L20.5662204,60.2913601 L20.5704722,52.6139722 C20.5704722,52.0308263 21.0509318,51.5567581 21.6405223,51.5567581 L44.8584826,51.5567581 C44.8584826,51.5567581 44.8584826,37.0871892 44.8584826,35.5097586 L47,35.5097586 L47,52.6139722 C47,53.197118 46.5195404,53.6697878 45.9299499,53.6697878 L22.7119896,53.6697878 L22.7063205,62.9427859 C22.7063205,63.3776981 22.4398709,63.7636651 22.0316929,63.9244847 C21.9055546,63.9748282 21.7723298,64 21.6362704,64 Z" id="Path" fill="#4C698F"></path>
                <path d="M29.8896848,46 C29.7462687,46 29.6071124,45.9715751 29.475056,45.9161466 C29.0760468,45.7484397 28.8176138,45.3590187 28.8176138,44.9255391 L28.8176138,36.2559476 L20.0720709,36.2559476 C19.479947,36.2559476 19,35.7741457 19,35.182908 L19,1.07303961 C19,0.480380646 19.4813669,0 20.0720709,0 L62.9279291,0 C63.520053,0 64,0.481801891 64,1.07303961 L64,35.182908 C64,35.775567 63.5186331,36.2559476 62.9279291,36.2559476 L45.7975135,36.2559476 L43.3679594,36.2573688 L40.2483039,36.2573688 L30.6422644,45.6930112 C30.4392099,45.8919854 30.1722571,46 29.8896848,46 Z M21.1441419,34.1098684 L29.8896848,34.1098684 C30.4818087,34.1098684 30.9617557,34.5916703 30.9617557,35.182908 L30.9617557,42.367299 L39.0583762,34.415436 C39.2600107,34.217883 39.5269635,34.1084471 39.8095358,34.1084471 L61.8544382,34.1084471 L61.8544382,33.8241982 L61.8544382,2.14465797 L21.1441419,2.14465797 L21.1441419,34.1098684 Z" id="Shape" fill="#3F3F3F" fill-rule="nonzero"></path>
                <path d="M42.0169281,29 C41.7447703,29 41.4875066,28.8937399 41.2911738,28.7016542 C40.9946436,28.41012 34.0038427,21.5427181 31.7114882,19.1109958 C30.6093166,17.9434966 30.001362,16.36458 30.000008,14.6644178 C29.9973,12.8906909 30.6824337,11.2245864 31.9294853,9.96989945 C33.176537,8.71521246 34.8352104,8.02452157 36.6008514,8.02452157 C38.6589606,8.02724619 40.6277045,9.01219591 41.8747561,10.6578657 L41.9830776,10.8009082 L42.0900452,10.6565034 C43.3303267,8.99312358 45.3044867,8 47.3707199,8 C51.0265717,8.00544924 53.9959357,10.9889069 53.9999978,14.652157 C54.0013518,16.3564061 53.3879811,17.9462212 52.2736233,19.1246189 C50.2100981,21.3029517 44.4988453,26.9619851 42.7981972,28.6444372 L42.7453904,28.696205 C42.5490577,28.8937399 42.29044,29 42.0169281,29 Z M36.6008514,10.1170289 C35.3903583,10.1170289 34.2529822,10.5897502 33.3985961,11.4493675 C32.545564,12.3076224 32.0770734,13.4492378 32.0784274,14.6630555 C32.0797814,15.8237431 32.4846332,16.893156 33.2185116,17.672397 C35.1060143,19.6736296 40.3555466,24.8558547 41.9207928,26.3966267 L42.0155741,26.490626 L42.1103554,26.3966267 C44.1061797,24.4185534 48.9467982,19.609601 50.767954,17.6873824 C51.5126646,16.8999676 51.9229324,15.8237431 51.9229324,14.6589685 C51.9202243,12.1455076 49.8797174,10.0979565 47.376136,10.0952319 C45.3139648,10.0952319 43.5158273,11.4915991 42.998592,13.490107 C42.8794383,13.947843 42.4678165,14.269348 41.9979719,14.2720727 C41.5254192,14.2720727 41.1124433,13.9546546 40.9905816,13.4996432 C40.457098,11.5120337 38.6548985,10.1211158 36.6076215,10.1183912 L36.6008514,10.1183912 L36.6008514,10.1170289 Z" id="Shape" fill="#ECD925" fill-rule="nonzero"></path>
            </g>
        </g>
    </g>
</svg>