<?xml version="1.0" encoding="UTF-8"?>
<svg width="71px" height="67px" viewBox="0 0 71 67" version="1.1" xmlns="http://www.w3.org/2000/svg" xmlns:xlink="http://www.w3.org/1999/xlink">
    <!-- Generator: Sketch 52.5 (67469) - http://www.bohemiancoding.com/sketch -->
    <title>icons-05</title>
    <desc>Created with Sketch.</desc>
    <g id="Careers" stroke="none" stroke-width="1" fill="none" fill-rule="evenodd">
        <g id="Careers-Culture" transform="translate(-355.000000, -1569.000000)" fill-rule="nonzero">
            <g id="icons-05" transform="translate(355.000000, 1569.000000)">
                <path d="M13,45.0432277 L13.6830146,44.3976945 C15.8535431,42.3444652 18.5262088,40.86218 21.4134977,40.1122224 C22.9104605,39.7813189 24.3304829,39.6145109 25.6357697,39.6145109 C28.6647908,39.6145109 30.6355443,40.4960163 32.2175465,41.205289 C32.9586038,41.5931514 33.7455554,41.8928632 34.5554541,42.0962875 L34.5905497,42.1044245 L34.6256453,42.1071368 C35.0980862,42.1396847 35.5786261,42.1573148 36.0524168,42.1573148 C37.3712019,42.1573148 38.6953863,42.0284794 39.9885246,41.7748771 C41.5354311,41.5497542 43.287512,41.2947957 44.8492666,41.2947957 C46.1329561,41.2947957 47.1615274,41.464316 47.9930234,41.8142058 C49.2902112,42.443465 50.2472415,43.6043397 50.6211447,45.0011866 C50.6764878,45.2141041 50.7196824,45.4351585 50.7480289,45.6562129 L50.8479164,46.4224445 L63.3203565,35.1676555 C64.1505026,34.4149856 65.2222686,34 66.338579,34 C66.4411661,34 66.5451031,34.0040685 66.6476903,34.0108493 C67.8598387,34.0962875 69.0112447,34.6740125 69.8062953,35.5975589 C71.5070825,37.523309 71.3747991,40.4065096 69.5093324,42.1640956 L69.4958341,42.1776572 L69.440491,42.2413968 C67.793697,44.1129005 64.4366668,47.8355654 60.4573645,51.731819 C54.6395922,57.4276996 49.7882989,61.2127479 46.4272193,62.6760468 C41.9444299,64.6329886 34.6512921,66 28.6917874,66 C23.6393693,66 17.0049491,64.61129 13.4994375,63.7840312 L13.0013498,63.6660451 L13,45.0432277 Z M13.6884139,62.0020342 C15.2285713,62.3736226 23.1885257,64.2234277 28.6904376,64.2234277 C34.4353191,64.2234277 41.4301443,62.9215121 45.7010101,61.0567893 C53.3896485,57.7124936 66.6652381,42.7092728 68.1541019,41.0100017 L68.1729995,40.9869469 L68.2850355,40.8757417 C69.4283425,39.8003051 69.5039331,37.9613494 68.4456654,36.7842007 C67.9529771,36.201051 67.2227184,35.8348873 66.4519648,35.7874216 C66.3993214,35.7847093 66.3480278,35.7833531 66.298084,35.7833531 C65.6123698,35.7833531 64.9523024,36.0355993 64.4407163,36.493982 L48.8002225,50.6211222 L48.7111336,50.6699441 L48.6800875,50.6970673 C44.8978606,53.9016783 34.7727769,56.9191388 29.686613,56.9191388 L28.8443184,56.9191388 C28.6134972,56.8974402 28.4042734,56.7889473 28.2530923,56.61129 C28.0992115,56.4309205 28.023621,56.2003729 28.0425186,55.9630446 C28.0776143,55.5005933 28.4663656,55.1398542 28.9266581,55.1398542 C28.9496052,55.1398542 28.9725523,55.1412104 28.9954995,55.1425665 C29.2276704,55.1615528 29.4800888,55.1710459 29.7460056,55.1710459 C34.7943742,55.1710459 46.0384679,51.5446686 48.1077591,48.7848788 C48.8744632,47.8803187 49.1633271,46.652992 48.8812124,45.4988981 C48.6665892,44.644516 48.1077591,43.9040515 47.349154,43.464655 L47.3275567,43.4524496 L47.3046095,43.4429564 C46.701235,43.1893541 45.9007851,43.0659434 44.8560158,43.0659434 C43.4373432,43.0659434 41.824295,43.288354 40.26524,43.5039837 L40.2071972,43.5121207 L40.1950487,43.514833 C38.8749138,43.7779285 37.522383,43.9108323 36.1766013,43.9108323 C35.539481,43.9108323 34.8956115,43.8809968 34.2611909,43.8213256 C33.3082101,43.6138329 32.3822259,43.2897101 31.5088851,42.8570944 L31.4967366,42.8516698 C30.0038233,42.1749449 28.311135,41.4073572 25.649268,41.4073572 C24.4627664,41.4073572 23.2006742,41.5578912 21.7928003,41.8670961 C17.4436442,42.8259027 14.0420697,46.4305815 13.1025872,47.5127988 L13.0026997,47.6280726 L13.0026997,62.0508561 L13.4562429,61.9952534 C13.4913385,61.9911849 13.5264342,61.9884726 13.5615298,61.9884726 C13.5898762,61.9884726 13.6195725,61.9898288 13.647919,61.9925411 L13.6884139,62.0020342 Z" id="Shape" fill="#3F3F3F"></path>
                <path d="M42,29 C41.7293059,29 41.4770983,28.8781968 41.3054386,28.6643644 L27.7020715,13.8233153 L27.6928283,13.811135 C26.5849633,12.2818275 26,10.49944 26,8.65615083 C26,3.88281688 29.7897169,0 34.4482958,0 C37.6649336,0 40.5686226,1.85411611 42,4.77333396 C43.4300569,1.85546948 46.3324255,0 49.5477428,0 C51.8017661,0 53.9237435,0.901344036 55.5214987,2.53756767 C57.1192539,4.1737913 58,6.34730259 58,8.65615083 C58,10.2856076 57.533878,11.8934105 56.650491,13.3022681 C56.6333251,13.3293354 56.6161591,13.3536961 56.5989932,13.37535 L56.5910704,13.3848236 L42.6945614,28.663011 C42.5242222,28.8768434 42.2706941,29 42,29 Z M41.9986795,26.6437838 L55.1689362,12.2588202 C55.8463316,11.1585309 56.204176,9.91207766 56.204176,8.65479746 C56.204176,4.89649057 53.2186185,1.83922905 49.5477428,1.83922905 C45.8808286,1.83922905 42.897912,4.89649057 42.897912,8.65479746 C42.897912,9.16231099 42.4951721,9.57508867 42,9.57508867 C41.5048279,9.57508867 41.102088,9.16231099 41.102088,8.65479746 C41.102088,4.89649057 38.117851,1.83922905 34.4482958,1.83922905 C30.7800611,1.83922905 27.7971445,4.89649057 27.7971445,8.65479746 C27.7971445,10.0947825 28.2513824,11.4860463 29.1123215,12.6810715 L41.9986795,26.6437838 Z" id="Shape" fill="#4C698F"></path>
                <path d="M12.1102765,40 L0.88836724,40 C0.398748044,40 0,40.4015581 0,40.8946277 L0,66.1053723 C0,66.5984419 0.398748044,67 0.88836724,67 L12.1116328,67 C12.601252,67 13,66.5984419 13,66.1053723 L13,63.7793403 L13,45.0249393 L13,40.8946277 C12.9986437,40.4001922 12.5998957,40 12.1102765,40 Z M11.2232655,65.2121105 L1.77673448,65.2121105 L1.77673448,41.7878895 L11.2232655,41.7878895 L11.2232655,65.2121105 Z" id="Shape" fill="#ECD925"></path>
            </g>
        </g>
    </g>
</svg>