<?xml version="1.0" encoding="UTF-8"?>
<svg width="12px" height="12px" viewBox="0 0 12 12" version="1.1" xmlns="http://www.w3.org/2000/svg" xmlns:xlink="http://www.w3.org/1999/xlink">
    <!-- Generator: Sketch 52.5 (67469) - http://www.bohemiancoding.com/sketch -->
    <title>icon</title>
    <desc>Created with Sketch.</desc>
    <defs>
        <path d="M10.8333333,10.8333333 L10.8333333,14.8335258 C10.8333333,15.3857043 10.3779093,15.8333333 9.82537746,15.8333333 L10.1746225,15.8333333 C9.61794388,15.8333333 9.16666667,15.3896167 9.16666667,14.8335258 L9.16666667,10.8333333 L5.16647416,10.8333333 C4.61429573,10.8333333 4.16666667,10.3779093 4.16666667,9.82537746 L4.16666667,10.1746225 C4.16666667,9.61794388 4.61038331,9.16666667 5.16647416,9.16666667 L9.16666667,9.16666667 L9.16666667,5.16647416 C9.16666667,4.61429573 9.62209066,4.16666667 10.1746225,4.16666667 L9.82537746,4.16666667 C10.3820561,4.16666667 10.8333333,4.61038331 10.8333333,5.16647416 L10.8333333,9.16666667 L14.8335258,9.16666667 C15.3857043,9.16666667 15.8333333,9.62209066 15.8333333,10.1746225 L15.8333333,9.82537746 C15.8333333,10.3820561 15.3896167,10.8333333 14.8335258,10.8333333 L10.8333333,10.8333333 Z" id="path-1"></path>
    </defs>
    <g id="Symbols" stroke="none" stroke-width="1" fill="none" fill-rule="evenodd">
        <g id="Sections/ContentBlk--Billboard-List" transform="translate(-402.000000, -303.000000)">
            <g id="Group" transform="translate(131.000000, 57.000000)">
                <g id="Group-2" transform="translate(267.000000, 241.000000)">
                    <g id="Atoms-/-icons-/-System-/-Add" transform="translate(0.000000, 1.000000)">
                        <mask id="mask-2" fill="white">
                            <use xlink:href="#path-1"></use>
                        </mask>
                        <use id="Mask" fill-opacity="0.7" fill="#000000" fill-rule="evenodd" xlink:href="#path-1"></use>
                        <g id="Atoms-/-Colors-/-Accent" mask="url(#mask-2)" fill="#424B5A" fill-rule="evenodd">
                            <rect id="Rectangle-5" x="0" y="0" width="20" height="20"></rect>
                        </g>
                    </g>
                </g>
            </g>
        </g>
    </g>
</svg>