<?xml version="1.0" encoding="UTF-8"?>
<svg width="114px" height="53px" viewBox="0 0 114 53" version="1.1" xmlns="http://www.w3.org/2000/svg" xmlns:xlink="http://www.w3.org/1999/xlink">
    <!-- Generator: Sketch 52.5 (67469) - http://www.bohemiancoding.com/sketch -->
    <title>UI/Logo_White</title>
    <desc>Created with Sketch.</desc>
    <g id="UI/Logo_White" stroke="none" stroke-width="1" fill="none" fill-rule="evenodd">
        <g id="AMLI-[wht]" transform="translate(0.000000, 0.500000)" fill="#FFFFFF">
            <path d="M53.7088847,0.143646409 L58.5349716,14.5082873 L58.5349716,14.4364641 L63.5708885,0.143646409 L77,0.143646409 L76.5803403,0.64640884 C76.2306238,1.29281768 75.8109641,2.80110497 75.8109641,3.51933702 L75.8109641,23.0552486 C75.8109641,23.8453039 76.4404537,25.5690608 76.6502836,26 C72.8733459,26 69.4461248,26 65.2495274,26 C65.879017,24.7790055 66.0888469,24.7790055 66.0888469,23.0552486 C66.0888469,15.801105 66.1587902,7.03867403 66.0888469,6.10497238 L59.0245747,26 L52.2400756,26 L45.5954631,5.81767956 L45.5954631,22.5524862 C45.5954631,23.9889503 45.8752363,24.7071823 46.7145558,25.9281768 C40.7693762,25.9281768 44.1965974,25.9281768 40.2098299,25.9281768 C40.489603,25.3535912 41.1890359,24.1325967 41.1890359,23.198895 C41.1190926,13.359116 41.2589792,8.54696133 41.1890359,3.08839779 C41.1890359,1.86740331 40.8393195,1.00552486 40,0 L53.7088847,0 L53.7088847,0.143646409 Z" id="Path"></path>
            <path d="M90.4294479,0.0720221607 C89.7239264,1.58448753 89.5122699,3.88919668 89.5122699,4.60941828 L89.5122699,21.3905817 C93.392638,21.4626039 96.0736196,21.3185596 97.5552147,21.3905817 C99.8834356,21.534626 100.800613,21.3905817 102,20.5263158 L101.858896,21.3905817 C101.717791,21.7506925 101.082822,25.3518006 101.082822,26 L79,26 C79.0705521,25.567867 79.7760736,23.2631579 79.7760736,22.6149584 L79.7760736,2.80886427 C79.7760736,2.80886427 79.7055215,1.72853186 79,0 L90.4294479,0 L90.4294479,0.0720221607 Z" id="Path"></path>
            <path d="M102,0 L113.928144,0 C113.281437,1.15235457 113.137725,1.58448753 113.137725,3.81717452 L113.137725,22.1828255 C113.137725,23.1191136 113.353293,24.9196676 114,26 L102.143713,26 L102.646707,25.1357341 C102.862275,24.7036011 103.077844,24.0554017 103.077844,23.4072022 L103.077844,2.52077562 C103.077844,2.23268698 102.862275,1.22437673 102.431138,0.432132964 L102,0 Z" id="Path"></path>
            <polygon id="Path" points="2.825 31 0 37 113 37 113 31"></polygon>
            <path d="M20,42.4379085 C19.9272727,42.2222222 19.9272727,41.9346405 19.9272727,41.7189542 C19.9272727,41.503268 20,41.2156863 20,41 L12,41 L12,52 L20,52 C19.9272727,51.7843137 19.9272727,51.496732 19.9272727,51.2810458 C19.9272727,51.0653595 20,50.7777778 20,50.5620915 C18.7636364,50.7777778 17.3090909,50.8496732 15.1272727,50.8496732 L15.1272727,46.751634 L17.3090909,46.751634 C18.2545455,46.751634 19.1272727,46.8235294 19.9272727,46.8954248 C19.8545455,46.6797386 19.8545455,46.3921569 19.8545455,46.1764706 C19.8545455,45.9607843 19.9272727,45.745098 19.9272727,45.4575163 C19.1272727,45.5294118 18.2545455,45.6013072 17.3090909,45.6013072 L15.1272727,45.6013072 L15.1272727,42.1503268 C17.3090909,42.1503268 18.7636364,42.2941176 20,42.4379085 Z" id="Path"></path>
            <path d="M23.7016129,47.4625 C25.0806452,47.94375 26.3145161,48.35625 26.3145161,49.45625 C26.3145161,50.4875 25.1532258,51.0375 23.8467742,51.0375 C22.3951613,51.0375 21.233871,50.41875 20.9435484,49.31875 L20.5806452,49.31875 C20.4354839,50.00625 20.2177419,50.625 20,51.3125 C21.016129,51.79375 22.25,52 23.4112903,52 C26.6774194,52 29,50.55625 29,48.63125 C29,48.21875 28.9274194,47.80625 28.7096774,47.53125 C27.5483871,45.19375 22.6129032,45.2625 22.6129032,43.40625 C22.6129032,42.5125 23.266129,41.89375 24.9354839,41.89375 C26.0967742,41.89375 26.8951613,42.44375 27.3306452,43.26875 L27.6209677,43.26875 C27.8387097,42.71875 28.0564516,42.2375 28.2741935,41.75625 C27.8387097,41.4125 26.4596774,41 24.9354839,41 C21.7419355,41 20.0725806,42.44375 20.0725806,44.23125 C20.0725806,46.225 22.0322581,46.84375 23.7016129,47.4625" id="Path"></path>
            <path d="M32.5,41.1419355 C32.0227273,41.1419355 31.5454545,41.0709677 31,41.0709677 L31,52 C31.4772727,52 31.9545455,51.9290323 32.5,51.9290323 C32.9772727,51.9290323 33.4545455,52 34,52 L34,41 C33.4545455,41.0709677 32.9772727,41.1419355 32.5,41.1419355 Z" id="Path"></path>
            <path d="M52,41.1419355 L52,52 L60,52 C59.9272727,51.7870968 59.8545455,51.5032258 59.8545455,51.2903226 C59.8545455,51.0774194 59.9272727,50.7935484 60,50.5806452 C58.6909091,50.7225806 57.3090909,50.7935484 55.1272727,50.7935484 L55.1272727,46.7483871 L57.3090909,46.7483871 C58.2545455,46.7483871 59.1272727,46.8193548 59.9272727,46.8903226 C59.8545455,46.6774194 59.8545455,46.3935484 59.8545455,46.1806452 C59.8545455,45.9677419 59.9272727,45.7548387 59.9272727,45.4709677 C59.1272727,45.5419355 58.2545455,45.6129032 57.3090909,45.6129032 L55.1272727,45.6129032 L55.1272727,42.2064516 C57.2363636,42.2064516 58.6909091,42.2774194 60,42.4193548 C59.9272727,42.2064516 59.8545455,41.9225806 59.8545455,41.7096774 C59.8545455,41.4967742 59.9272727,41.2129032 60,41 L52,41 L52,41.1419355 Z" id="Path"></path>
            <path d="M73.1920904,41.0709677 C72.8983051,41.0709677 72.6045198,41.0709677 72.3107345,41 L72.3107345,48.5225806 C71.9435028,48.1677419 71.5028249,47.883871 71.1355932,47.5290323 C68.4915254,45.3290323 65.7740113,43.2 63.1299435,41.0709677 L61,41.0709677 L61,52 C61.2937853,52 61.5875706,51.9290323 61.8813559,51.9290323 C62.1751412,51.9290323 62.4689266,51.9290323 62.7627119,52 L62.7627119,44.1935484 L65.039548,46.0387097 C65.6271186,46.5354839 66.2146893,46.9612903 66.8022599,47.4580645 C68.5649718,48.8774194 70.3276836,50.4387097 72.1638418,51.9290323 L74,51.9290323 L74,41 C73.779661,41.0709677 73.4858757,41.0709677 73.1920904,41.0709677 Z" id="Path"></path>
            <path d="M75,41 C75.0733333,41.2142857 75.0733333,41.4285714 75.0733333,41.6428571 C75.0733333,41.8571429 75,42.1428571 75,42.3571429 C76.1,42.2142857 77.42,42.1428571 78.96,42.1428571 L78.96,52 C79.4733333,52 79.9866667,51.9285714 80.5733333,51.9285714 C81.0866667,51.9285714 81.6,52 82.1866667,52 L82.1866667,42.1428571 C83.5066667,42.1428571 84.7533333,42.2857143 86,42.3571429 C85.9266667,42.1428571 85.9266667,41.9285714 85.9266667,41.6428571 C85.9266667,41.4285714 86,41.2142857 86,41 L75,41 Z" id="Path"></path>
            <path d="M88.5,41.1419355 C88.0227273,41.1419355 87.5454545,41.0709677 87,41.0709677 L87,52 C87.4772727,52 87.9545455,51.9290323 88.5,51.9290323 C88.9772727,51.9290323 89.4545455,52 90,52 L90,41 C89.5227273,41.0709677 88.9772727,41.1419355 88.5,41.1419355 Z" id="Path"></path>
            <path d="M101.681081,47.6 L98.3081081,41 C98.027027,41 97.8162162,41.0709677 97.5351351,41.0709677 C97.2540541,41.0709677 97.0432432,41.0709677 96.7621622,41 L93.3189189,47.6 L91,52 C91.3513514,52 91.6324324,51.9290323 91.9837838,51.9290323 C92.3351351,51.9290323 92.6162162,51.9290323 92.9675676,52 C93.3189189,50.8645161 93.8810811,49.9419355 94.372973,48.6645161 L99.0810811,48.6645161 C99.6432432,49.7290323 100.064865,50.7935484 100.486486,52 C101.048649,52 101.610811,51.9290323 102.243243,51.9290323 C102.805405,51.9290323 103.437838,52 104,52 L101.681081,47.6 Z M94.8648649,47.7419355 L94.9351351,47.6 L96.7621622,44.0516129 L98.5189189,47.6 L98.5891892,47.7419355 L94.8648649,47.7419355 Z" id="Shape"></path>
            <path d="M113,50.6339869 C111.545455,50.7777778 110.018182,50.8496732 108.2,50.8496732 L108.2,41 C107.690909,41 107.181818,41.0718954 106.6,41.0718954 C106.090909,41.0718954 105.581818,41 105,41 L105,52 L113,52 C112.927273,51.7843137 112.927273,51.496732 112.927273,51.2810458 C112.927273,51.1372549 113,50.8496732 113,50.6339869 Z" id="Path"></path>
            <path d="M10.1986755,50.9291391 C9.17880795,49.7868874 8.23178808,48.6446358 7.28476821,47.4309934 C6.99337748,47.0740397 6.77483444,46.7884768 6.48344371,46.4315232 C8.45033113,46.1459603 9.7615894,45.1464901 9.7615894,43.575894 C9.7615894,42.5050331 9.10596026,41.7911258 7.94039735,41.2913907 C7.06622517,40.9344371 5.53642384,41.0058278 4.51655629,41.0058278 L0,41.0058278 L0,52 C0.509933775,52 1.01986755,51.9286093 1.60264901,51.9286093 C2.11258278,51.9286093 2.62251656,52 3.20529801,52 L3.20529801,46.8598675 L3.35099338,46.8598675 C3.49668874,47.0740397 3.71523179,47.2882119 3.86092715,47.5023841 C4.15231788,47.9307285 4.51655629,48.3590728 4.73509934,48.6446358 L7.21192053,52 C7.86754967,52 8.45033113,51.9286093 9.10596026,51.9286093 C9.7615894,51.9286093 10.4172185,52 11,52 L10.1986755,50.9291391 Z M3.20529801,46.0745695 L3.20529801,41.7911258 C4.51655629,41.7911258 6.04635762,41.6483444 6.41059603,43.0047682 C6.48344371,43.2903311 6.48344371,43.5045033 6.48344371,43.7900662 C6.48344371,45.432053 5.39072848,46.217351 3.20529801,46.0745695 Z" id="Shape"></path>
            <path d="M40,25.9281768 C37.7766393,24.1325967 38.7807377,24.3480663 28.4528689,0 L16.4754098,0 C17.192623,0.861878453 17.4795082,1.50828729 17.3360656,1.79558011 C15.829918,4.74033149 14.2520492,8.1160221 14.2520492,8.1160221 C4.71311475,27.9392265 5.86065574,24.4198895 5,25.9281768 L11.670082,25.9281768 C11.3114754,25.2099448 10.8094262,25.2099448 11.2397541,24.4198895 C13.1045082,21.1878453 13.8934426,18.961326 13.8934426,18.961326 L25.2971311,18.961326 C25.6557377,19.7513812 27.0901639,22.6961326 27.0901639,24.0607735 C27.0901639,25.0662983 27.0901639,24.9944751 26.6598361,26 L40,25.9281768 Z M16.2602459,14.1491713 C17.2643443,12.281768 19.272541,8.1878453 20.0614754,6.5359116 C21.567623,10.3425414 22.2848361,11.4917127 22.7868852,13 C22.8586066,13.2154696 23.2889344,14.1491713 23.2889344,14.1491713 C23.1454918,14.1491713 16.4036885,14.1491713 16.2602459,14.1491713 Z" id="Shape"></path>
            <path d="M49.8602151,47.5424837 C50,47.1111111 50,46.6797386 50,46.1764706 C50,43.5163399 48.2526882,41.1437908 43.9193548,41 L37,41 L37,52 L42.6612903,52 C46.2258065,51.9281046 49.1612903,50.3464052 49.8602151,47.5424837 Z M46.5752688,47.5424837 C46.0860215,50.2026144 44.1989247,51.0653595 41.7526882,51.0653595 L40.0053763,51.0653595 L40.0053763,41.8627451 L41.9623656,41.8627451 C44.827957,41.8627451 46.5752688,43.0849673 46.5752688,46.1045752 C46.6451613,46.6078431 46.6451613,47.1111111 46.5752688,47.5424837 Z" id="Shape"></path>
        </g>
    </g>
</svg>