<?xml version="1.0" encoding="UTF-8"?>
<svg width="114px" height="53px" viewBox="0 0 114 53" version="1.1" xmlns="http://www.w3.org/2000/svg" xmlns:xlink="http://www.w3.org/1999/xlink">
    <!-- Generator: Sketch 52.5 (67469) - http://www.bohemiancoding.com/sketch -->
    <title>UI/Logo_Dark</title>
    <desc>Created with Sketch.</desc>
    <g id="UI/Logo_Dark" stroke="none" stroke-width="1" fill="none" fill-rule="evenodd">
        <path d="M53.7088847,0.643646409 L58.5349716,15.0082873 L58.5349716,14.9364641 L63.5708885,0.643646409 L77,0.643646409 L76.5803403,1.14640884 C76.2306238,1.79281768 75.8109641,3.30110497 75.8109641,4.01933702 L75.8109641,23.5552486 C75.8109641,24.3453039 76.4404537,26.0690608 76.6502836,26.5 C72.8733459,26.5 69.4461248,26.5 65.2495274,26.5 C65.879017,25.2790055 66.0888469,25.2790055 66.0888469,23.5552486 C66.0888469,16.301105 66.1587902,7.53867403 66.0888469,6.60497238 L59.0245747,26.5 L52.2400756,26.5 L45.5954631,6.31767956 L45.5954631,23.0524862 C45.5954631,24.4889503 45.8752363,25.2071823 46.7145558,26.4281768 C40.7693762,26.4281768 44.1965974,26.4281768 40.2098299,26.4281768 C40.489603,25.8535912 41.1890359,24.6325967 41.1890359,23.698895 C41.1190926,13.859116 41.2589792,9.04696133 41.1890359,3.58839779 C41.1890359,2.36740331 40.8393195,1.50552486 40,0.5 L53.7088847,0.5 L53.7088847,0.643646409 Z" id="Path" fill="#3F3F3F"></path>
        <path d="M90.4294479,0.572022161 C89.7239264,2.08448753 89.5122699,4.38919668 89.5122699,5.10941828 L89.5122699,21.8905817 C93.392638,21.9626039 96.0736196,21.8185596 97.5552147,21.8905817 C99.8834356,22.034626 100.800613,21.8905817 102,21.0263158 L101.858896,21.8905817 C101.717791,22.2506925 101.082822,25.8518006 101.082822,26.5 L79,26.5 C79.0705521,26.067867 79.7760736,23.7631579 79.7760736,23.1149584 L79.7760736,3.30886427 C79.7760736,3.30886427 79.7055215,2.22853186 79,0.5 L90.4294479,0.5 L90.4294479,0.572022161 Z" id="Path" fill="#3F3F3F"></path>
        <path d="M102,0.5 L113.928144,0.5 C113.281437,1.65235457 113.137725,2.08448753 113.137725,4.31717452 L113.137725,22.6828255 C113.137725,23.6191136 113.353293,25.4196676 114,26.5 L102.143713,26.5 L102.646707,25.6357341 C102.862275,25.2036011 103.077844,24.5554017 103.077844,23.9072022 L103.077844,3.02077562 C103.077844,2.73268698 102.862275,1.72437673 102.431138,0.932132964 L102,0.5 Z" id="Path" fill="#3F3F3F"></path>
        <polygon id="Path" fill="#3F3F3F" points="2.825 31.5 0 37.5 113 37.5 113 31.5"></polygon>
        <path d="M20,42.9379085 C19.9272727,42.7222222 19.9272727,42.4346405 19.9272727,42.2189542 C19.9272727,42.003268 20,41.7156863 20,41.5 L12,41.5 L12,52.5 L20,52.5 C19.9272727,52.2843137 19.9272727,51.996732 19.9272727,51.7810458 C19.9272727,51.5653595 20,51.2777778 20,51.0620915 C18.7636364,51.2777778 17.3090909,51.3496732 15.1272727,51.3496732 L15.1272727,47.251634 L17.3090909,47.251634 C18.2545455,47.251634 19.1272727,47.3235294 19.9272727,47.3954248 C19.8545455,47.1797386 19.8545455,46.8921569 19.8545455,46.6764706 C19.8545455,46.4607843 19.9272727,46.245098 19.9272727,45.9575163 C19.1272727,46.0294118 18.2545455,46.1013072 17.3090909,46.1013072 L15.1272727,46.1013072 L15.1272727,42.6503268 C17.3090909,42.6503268 18.7636364,42.7941176 20,42.9379085 Z" id="Path" fill="#3F3F3F"></path>
        <path d="M23.7016129,47.9625 C25.0806452,48.44375 26.3145161,48.85625 26.3145161,49.95625 C26.3145161,50.9875 25.1532258,51.5375 23.8467742,51.5375 C22.3951613,51.5375 21.233871,50.91875 20.9435484,49.81875 L20.5806452,49.81875 C20.4354839,50.50625 20.2177419,51.125 20,51.8125 C21.016129,52.29375 22.25,52.5 23.4112903,52.5 C26.6774194,52.5 29,51.05625 29,49.13125 C29,48.71875 28.9274194,48.30625 28.7096774,48.03125 C27.5483871,45.69375 22.6129032,45.7625 22.6129032,43.90625 C22.6129032,43.0125 23.266129,42.39375 24.9354839,42.39375 C26.0967742,42.39375 26.8951613,42.94375 27.3306452,43.76875 L27.6209677,43.76875 C27.8387097,43.21875 28.0564516,42.7375 28.2741935,42.25625 C27.8387097,41.9125 26.4596774,41.5 24.9354839,41.5 C21.7419355,41.5 20.0725806,42.94375 20.0725806,44.73125 C20.0725806,46.725 22.0322581,47.34375 23.7016129,47.9625" id="Path" fill="#3F3F3F"></path>
        <path d="M32.5,41.6419355 C32.0227273,41.6419355 31.5454545,41.5709677 31,41.5709677 L31,52.5 C31.4772727,52.5 31.9545455,52.4290323 32.5,52.4290323 C32.9772727,52.4290323 33.4545455,52.5 34,52.5 L34,41.5 C33.4545455,41.5709677 32.9772727,41.6419355 32.5,41.6419355 Z" id="Path" fill="#3F3F3F"></path>
        <path d="M52,41.6419355 L52,52.5 L60,52.5 C59.9272727,52.2870968 59.8545455,52.0032258 59.8545455,51.7903226 C59.8545455,51.5774194 59.9272727,51.2935484 60,51.0806452 C58.6909091,51.2225806 57.3090909,51.2935484 55.1272727,51.2935484 L55.1272727,47.2483871 L57.3090909,47.2483871 C58.2545455,47.2483871 59.1272727,47.3193548 59.9272727,47.3903226 C59.8545455,47.1774194 59.8545455,46.8935484 59.8545455,46.6806452 C59.8545455,46.4677419 59.9272727,46.2548387 59.9272727,45.9709677 C59.1272727,46.0419355 58.2545455,46.1129032 57.3090909,46.1129032 L55.1272727,46.1129032 L55.1272727,42.7064516 C57.2363636,42.7064516 58.6909091,42.7774194 60,42.9193548 C59.9272727,42.7064516 59.8545455,42.4225806 59.8545455,42.2096774 C59.8545455,41.9967742 59.9272727,41.7129032 60,41.5 L52,41.5 L52,41.6419355 Z" id="Path" fill="#3F3F3F"></path>
        <path d="M73.1920904,41.5709677 C72.8983051,41.5709677 72.6045198,41.5709677 72.3107345,41.5 L72.3107345,49.0225806 C71.9435028,48.6677419 71.5028249,48.383871 71.1355932,48.0290323 C68.4915254,45.8290323 65.7740113,43.7 63.1299435,41.5709677 L61,41.5709677 L61,52.5 C61.2937853,52.5 61.5875706,52.4290323 61.8813559,52.4290323 C62.1751412,52.4290323 62.4689266,52.4290323 62.7627119,52.5 L62.7627119,44.6935484 L65.039548,46.5387097 C65.6271186,47.0354839 66.2146893,47.4612903 66.8022599,47.9580645 C68.5649718,49.3774194 70.3276836,50.9387097 72.1638418,52.4290323 L74,52.4290323 L74,41.5 C73.779661,41.5709677 73.4858757,41.5709677 73.1920904,41.5709677 Z" id="Path" fill="#3F3F3F"></path>
        <path d="M75,41.5 C75.0733333,41.7142857 75.0733333,41.9285714 75.0733333,42.1428571 C75.0733333,42.3571429 75,42.6428571 75,42.8571429 C76.1,42.7142857 77.42,42.6428571 78.96,42.6428571 L78.96,52.5 C79.4733333,52.5 79.9866667,52.4285714 80.5733333,52.4285714 C81.0866667,52.4285714 81.6,52.5 82.1866667,52.5 L82.1866667,42.6428571 C83.5066667,42.6428571 84.7533333,42.7857143 86,42.8571429 C85.9266667,42.6428571 85.9266667,42.4285714 85.9266667,42.1428571 C85.9266667,41.9285714 86,41.7142857 86,41.5 L75,41.5 Z" id="Path" fill="#3F3F3F"></path>
        <path d="M88.5,41.6419355 C88.0227273,41.6419355 87.5454545,41.5709677 87,41.5709677 L87,52.5 C87.4772727,52.5 87.9545455,52.4290323 88.5,52.4290323 C88.9772727,52.4290323 89.4545455,52.5 90,52.5 L90,41.5 C89.5227273,41.5709677 88.9772727,41.6419355 88.5,41.6419355 Z" id="Path" fill="#3F3F3F"></path>
        <path d="M101.681081,48.1 L98.3081081,41.5 C98.027027,41.5 97.8162162,41.5709677 97.5351351,41.5709677 C97.2540541,41.5709677 97.0432432,41.5709677 96.7621622,41.5 L93.3189189,48.1 L91,52.5 C91.3513514,52.5 91.6324324,52.4290323 91.9837838,52.4290323 C92.3351351,52.4290323 92.6162162,52.4290323 92.9675676,52.5 C93.3189189,51.3645161 93.8810811,50.4419355 94.372973,49.1645161 L99.0810811,49.1645161 C99.6432432,50.2290323 100.064865,51.2935484 100.486486,52.5 C101.048649,52.5 101.610811,52.4290323 102.243243,52.4290323 C102.805405,52.4290323 103.437838,52.5 104,52.5 L101.681081,48.1 Z M94.8648649,48.2419355 L94.9351351,48.1 L96.7621622,44.5516129 L98.5189189,48.1 L98.5891892,48.2419355 L94.8648649,48.2419355 Z" id="Shape" fill="#3F3F3F"></path>
        <path d="M113,51.1339869 C111.545455,51.2777778 110.018182,51.3496732 108.2,51.3496732 L108.2,41.5 C107.690909,41.5 107.181818,41.5718954 106.6,41.5718954 C106.090909,41.5718954 105.581818,41.5 105,41.5 L105,52.5 L113,52.5 C112.927273,52.2843137 112.927273,51.996732 112.927273,51.7810458 C112.927273,51.6372549 113,51.3496732 113,51.1339869 Z" id="Path" fill="#3F3F3F"></path>
        <path d="M10.1986755,51.4291391 C9.17880795,50.2868874 8.23178808,49.1446358 7.28476821,47.9309934 C6.99337748,47.5740397 6.77483444,47.2884768 6.48344371,46.9315232 C8.45033113,46.6459603 9.7615894,45.6464901 9.7615894,44.075894 C9.7615894,43.0050331 9.10596026,42.2911258 7.94039735,41.7913907 C7.06622517,41.4344371 5.53642384,41.5058278 4.51655629,41.5058278 L0,41.5058278 L0,52.5 C0.509933775,52.5 1.01986755,52.4286093 1.60264901,52.4286093 C2.11258278,52.4286093 2.62251656,52.5 3.20529801,52.5 L3.20529801,47.3598675 L3.35099338,47.3598675 C3.49668874,47.5740397 3.71523179,47.7882119 3.86092715,48.0023841 C4.15231788,48.4307285 4.51655629,48.8590728 4.73509934,49.1446358 L7.21192053,52.5 C7.86754967,52.5 8.45033113,52.4286093 9.10596026,52.4286093 C9.7615894,52.4286093 10.4172185,52.5 11,52.5 L10.1986755,51.4291391 Z M3.20529801,46.5745695 L3.20529801,42.2911258 C4.51655629,42.2911258 6.04635762,42.1483444 6.41059603,43.5047682 C6.48344371,43.7903311 6.48344371,44.0045033 6.48344371,44.2900662 C6.48344371,45.932053 5.39072848,46.717351 3.20529801,46.5745695 Z" id="Shape" fill="#3F3F3F"></path>
        <path d="M40,26.4281768 C37.7766393,24.6325967 38.7807377,24.8480663 28.4528689,0.5 L16.4754098,0.5 C17.192623,1.36187845 17.4795082,2.00828729 17.3360656,2.29558011 C15.829918,5.24033149 14.2520492,8.6160221 14.2520492,8.6160221 C4.71311475,28.4392265 5.86065574,24.9198895 5,26.4281768 L11.670082,26.4281768 C11.3114754,25.7099448 10.8094262,25.7099448 11.2397541,24.9198895 C13.1045082,21.6878453 13.8934426,19.461326 13.8934426,19.461326 L25.2971311,19.461326 C25.6557377,20.2513812 27.0901639,23.1961326 27.0901639,24.5607735 C27.0901639,25.5662983 27.0901639,25.4944751 26.6598361,26.5 L40,26.4281768 Z M16.2602459,14.6491713 C17.2643443,12.781768 19.272541,8.6878453 20.0614754,7.0359116 C21.567623,10.8425414 22.2848361,11.9917127 22.7868852,13.5 C22.8586066,13.7154696 23.2889344,14.6491713 23.2889344,14.6491713 C23.1454918,14.6491713 16.4036885,14.6491713 16.2602459,14.6491713 Z" id="Shape" fill="#3F3F3F"></path>
        <path d="M49.8602151,48.0424837 C50,47.6111111 50,47.1797386 50,46.6764706 C50,44.0163399 48.2526882,41.6437908 43.9193548,41.5 L37,41.5 L37,52.5 L42.6612903,52.5 C46.2258065,52.4281046 49.1612903,50.8464052 49.8602151,48.0424837 Z M46.5752688,48.0424837 C46.0860215,50.7026144 44.1989247,51.5653595 41.7526882,51.5653595 L40.0053763,51.5653595 L40.0053763,42.3627451 L41.9623656,42.3627451 C44.827957,42.3627451 46.5752688,43.5849673 46.5752688,46.6045752 C46.6451613,47.1078431 46.6451613,47.6111111 46.5752688,48.0424837 Z" id="Shape" fill="#3F3F3F"></path>
    </g>
</svg>