<svg height="12" viewBox="0 0 12 12" width="12" xmlns="http://www.w3.org/2000/svg" xmlns:xlink="http://www.w3.org/1999/xlink"><defs><path id="a" d="m10.8333333 10.8333333v4.0001925c0 .5521785-.455424.9998075-1.00795584.9998075h.34924504c-.55667862 0-1.00795583-.4437166-1.00795583-.9998075v-4.0001925h-4.00019251c-.55217843 0-.99980749-.455424-.99980749-1.00795584v.34924504c0-.55667862.44371664-1.00795583.99980749-1.00795583h4.00019251v-4.00019251c0-.55217843.45542399-.99980749 1.00795583-.99980749h-.34924504c.55667864 0 1.00795584.44371664 1.00795584.99980749v4.00019251h4.0001925c.5521785 0 .9998075.45542399.9998075 1.00795583v-.34924504c0 .55667864-.4437166 1.00795584-.9998075 1.00795584z"/><mask id="b" fill="#fff"><use fill="#fff" fill-rule="evenodd" xlink:href="#a"/></mask></defs><g fill="none" fill-rule="evenodd" transform="translate(-4 -4)"><use fill="#000" fill-opacity=".7" xlink:href="#a"/><g fill="#424b5a" mask="url(#b)"><path d="m0 0h20v20h-20z"/></g></g></svg>