<svg height="67" viewBox="0 0 71 67" width="71" xmlns="http://www.w3.org/2000/svg"><g fill="none"><path d="m13 45.0432277.6830146-.6455332c2.1705285-2.0532293 4.8431942-3.5355145 7.7304831-4.2854721 1.4969628-.3309035 2.9169852-.4977115 4.222272-.4977115 3.0290211 0 4.9997746.8815054 6.5817768 1.5907781.7410573.3878624 1.5280089.6875742 2.3379076.8909985l.0350956.008137.0350956.0027123c.4724409.0325479.9529808.050178 1.4267715.050178 1.3187851 0 2.6429695-.1288354 3.9361078-.3824377 1.5469065-.2251229 3.2989874-.4800814 4.860742-.4800814 1.2836895 0 2.3122608.1695203 3.1437568.5194101 1.2971878.6292592 2.2542181 1.7901339 2.6281213 3.1869808.0553431.2129175.0985377.4339719.1268842.6550263l.0998875.7662316 12.4724401-11.254789c.8301461-.7526699 1.9019121-1.1676555 3.0182225-1.1676555.1025871 0 .2065241.0040685.3091113.0108493 1.2121484.0854382 2.3635544.6631632 3.158605 1.5867096 1.7007872 1.9257501 1.5685038 4.8089507-.2969629 6.5665367l-.0134983.0135616-.0553431.0637396c-1.646794 1.8715037-5.0038242 5.5941686-8.9831265 9.4904222-5.8177723 5.6958806-10.6690656 9.4809289-14.0301452 10.9442278-4.4827894 1.9569418-11.7759272 3.3239532-17.7354319 3.3239532-5.0524181 0-11.6868383-1.38871-15.1923499-2.2159688l-.4980877-.1179861zm.6884139 16.9588065c1.5401574.3715884 9.5001118 2.2213935 15.0020237 2.2213935 5.7448815 0 12.7397067-1.3019156 17.0105725-3.1666384 7.6886384-3.3442957 20.964228-18.3475165 22.4530918-20.0467876l.0188976-.0230548.112036-.1112052c1.143307-1.0754366 1.2188976-2.9143923.1606299-4.091541-.4926883-.5831497-1.222947-.9493134-1.9937006-.9967791-.0526434-.0027123-.103937-.0040685-.1538808-.0040685-.6857142 0-1.3457816.2522462-1.8573677.7106289l-15.6404938 14.1271402-.0890889.0488219-.0310461.0271232c-3.7822269 3.204611-13.9073106 6.2220715-18.9934745 6.2220715h-.8422946c-.2308212-.0216986-.440045-.1301915-.5912261-.3078488-.1538808-.1803695-.2294713-.4109171-.2105737-.6482454.0350957-.4624513.423847-.8231904.8841395-.8231904.0229471 0 .0458942.0013562.0688414.0027123.2321709.0189863.4845893.0284794.7505061.0284794 5.0483686 0 16.2924623-3.6263773 18.3617535-6.3861671.7667041-.9045601 1.055568-2.1318868.7734533-3.2859807-.2146232-.8543821-.7734533-1.5948466-1.5320584-2.0342431l-.0215973-.0122054-.0229472-.0094932c-.6033745-.2536023-1.4038244-.377013-2.4485937-.377013-1.4186726 0-3.0317208.2224106-4.5907758.4380403l-.0580428.008137-.0121485.0027123c-1.3201349.2630955-2.6726657.3959993-4.0184474.3959993-.6371203 0-1.2809898-.0298355-1.9154104-.0895067-.9529808-.2074927-1.878965-.5316155-2.7523058-.9642312l-.0121485-.0054246c-1.4929133-.6767249-3.1856016-1.4443126-5.8474686-1.4443126-1.1865016 0-2.4485938.150534-3.8564677.4597389-4.3491561.9588066-7.7507306 4.5634854-8.6902131 5.6457027l-.0998875.1152738v14.4227835l.4535432-.0556027c.0350956-.0040685.0701913-.0067808.1052869-.0067808.0283464 0 .0580427.0013562.0863892.0040685z" fill="#3f3f3f"/><path d="m42 29c-.2706941 0-.5229017-.1218032-.6945614-.3356356l-13.6033671-14.8410491-.0092432-.0121803c-1.107865-1.5293075-1.6928283-3.311695-1.6928283-5.15498417 0-4.77333395 3.7897169-8.65615083 8.4482958-8.65615083 3.2166378 0 6.1203268 1.85411611 7.5517042 4.77333396 1.4300569-2.91786448 4.3324255-4.77333396 7.5477428-4.77333396 2.2540233 0 4.3760007.90134404 5.9737559 2.53756767s2.4785013 3.80973492 2.4785013 6.11858316c0 1.62945677-.466122 3.23725967-1.349509 4.64611727-.0171659.0270673-.0343319.051428-.0514978.0730819l-.0079228.0094736-13.896509 15.2781874c-.1703392.2138324-.4238673.336989-.6945614.336989zm-.0013205-2.3562162 13.1702567-14.3849636c.6773954-1.1002893 1.0352398-2.34674254 1.0352398-3.60402274 0-3.75830689-2.9855575-6.81556841-6.6564332-6.81556841-3.6669142 0-6.6498308 3.05726152-6.6498308 6.81556841 0 .50751353-.4027399.92029121-.897912.92029121s-.897912-.41277768-.897912-.92029121c0-3.75830689-2.984237-6.81556841-6.6537922-6.81556841-3.6682347 0-6.6511513 3.05726152-6.6511513 6.81556841 0 1.43998504.4542379 2.83124884 1.315177 4.02627404z" fill="#4c698f"/><path d="m12.1102765 40h-11.22190926c-.4896192 0-.88836724.4015581-.88836724.8946277v25.2107446c0 .4930696.39874804.8946277.88836724.8946277h11.22326556c.4896192 0 .8883672-.4015581.8883672-.8946277v-2.326032-18.754401-4.1303116c-.0013563-.4944355-.4001043-.8946277-.8897235-.8946277zm-.887011 25.2121105h-9.44653102v-23.424221h9.44653102z" fill="#ecd925"/></g></svg>