<svg height="16" viewBox="0 0 14 16" width="14" xmlns="http://www.w3.org/2000/svg"><path d="m14.7765581 19.5315889c-2.5765592-2.9823322-2.1687452-5.4849393 1.2234419-7.5078213.0081554.0019038-1.0753183 1.7558115 1 3.3198871 1.2821023.9167516 1.3490788 2.3127296.2009297 4.1879342 1.1457253-.3128542 1.9244769-.6106342 2.3362546-.8933398 3.5732559-2.4532162 3.5302487-5.6851113.2204963-9.01675586.0064592-.00441944-.36593.72390506-1.1961738 1.26212556.0067992-.0100628 2.2222364-5.38785215-3.6696352-6.3836188.007615.00343589 1.1965818 2.75375855-1.6650429 5.12149324-4.04685189 2.75936556-4.39177313 5.92715636-2.0343726 8.17338976.5794686.6983629 1.7741692 1.2772649 3.584102 1.7367059z" fill="#fff" fill-rule="evenodd" transform="translate(-9 -4)"/></svg>