<svg height="23" viewBox="0 0 23 23" width="23" xmlns="http://www.w3.org/2000/svg"><path d="m18.6734165 16.988459c-1.5088491 1.8105958-4.1577317 3.011541-7.1734165 3.011541-2.89909475 0-5.45920112-1.1098802-6.99334739-2.8043093-.02083001.0092247-.04211564.017807-.06384184.0257147l-2.81907786 1.0260604c-.51897791.1888925-1.09282026-.0786946-1.28171277-.5976725s.07869458-1.0928202.59767248-1.2817127l2.45898275-.8949966c-.04170611-.1002254-.08031974-.2015054-.11575515-.3037744l-2.28429068-.1197146c-.55152787-.0289043-.97519793-.4994376-.94629358-1.0509655.02890435-.5515278.49943762-.9751979 1.05096549-.9462935l1.90864743.1000279c.06763817-.981503.42000384-1.9052935.99510495-2.7239659-.42873626-4.00064426-.24307884-6.2047896.55697227-6.612436.78409038-.39951401 2.61730148.69263663 5.4996333 3.27645189.4669089-.06076609.9467917-.09241389 1.4363406-.09241389.5823168 0 1.1509571.04477855 1.7003535.13007844 2.9065144-2.6108608 4.7537164-3.71556628 5.5416061-3.31411644.8266554.42120195.9973766 2.76036816.5121635 7.0174986.4168278.70771.6728407 1.482753.7324368 2.2979041l1.5079582-.0790287c.5515279-.0289044 1.0220612.3947657 1.0509655.9462935.0289044.5515279-.3947657 1.0220612-.9462935 1.0509655l-1.8747247.0982502c-.0096.0280963-.0194397.0561186-.0295173.0840654l1.7478627.63617c.5189779.1888925.786565.7627348.5976724 1.2817127-.1888925.5189779-.7627348.786565-1.2817127.5976725zm-10.6734165-2.988459c.55228475 0 1-.4477153 1-1s-.44771525-1-1-1-1 .4477153-1 1 .44771525 1 1 1zm7 0c.5522847 0 1-.4477153 1-1s-.4477153-1-1-1-1 .4477153-1 1 .4477153 1 1 1z" fill="#727272" fill-rule="evenodd"/></svg>