<svg height="66" viewBox="0 0 93 66" width="93" xmlns="http://www.w3.org/2000/svg"><g fill="none" fill-rule="evenodd"><path d="m6.01010051 50c-.22659575 0-.44467285-.0722892-.62867541-.2065404-.32541194-.2392427-.49408095-.6540448-.42593186-1.0567987l1.42601985-8.4285714-6.06015841-5.9690189c-.28792993-.2857143-.39526476-.7194493-.26918893-1.1067126.12777956-.394148.45830268-.67642.8637898-.7349398l8.37382023-1.2306368 3.75160772-7.6660929c.1788914-.3648882.5554152-.6006885.9591986-.6006885s.7786034.2358003.9574948.6006885l3.7482003 7.6660929 8.3772277 1.2306368c.4054871.0585198.7360102.3407918.8637898.7349398.1260758.394148.0221484.8192771-.2708927 1.1067126l-6.0618621 5.9690189 1.4294273 8.4285714c.0681491.4079174-.093705.8141136-.4259319 1.0567987-.1840025.1342512-.4020797.2048192-.6286754.2048192-.1720765 0-.3441529-.0430292-.4974884-.1239242l-7.4912894-3.979346-7.49128946 3.979346c-.15503919.0826161-.32711566.1256454-.49919213.1256454zm4.94762439-17.2685026c-.1550392.3184165-.4565989.5387264-.8041593.5903615l-6.78765003.9982788 4.91184612 4.83821c.25215166.2478485.3663014.605852.30667094.9552495l-1.15683091 6.8313253 6.07378818-3.2271944c.1516318-.0808951.3237082-.1239243.4974884-.1239243.1720765 0 .3458567.0430292.4991922.1239243l6.0720845 3.2254733-1.1602384-6.8296042c-.0596305-.3511187.056223-.707401.3083747-.9569707l4.9135498-4.83821-6.7893537-.9982788c-.3492641-.0516351-.6491202-.2719449-.8041594-.5903615l-3.0377459-6.2151463z" fill="#ecd925" fill-rule="nonzero"/><path d="m53.920666 66c-.4643818 0-.8771657-.2958846-1.02336-.736271-6.212397-18.5684796-25.850589-23.0858806-26.0483813-23.1288871-.5813372-.1272992-.9511228-.7035861-.8238478-1.2850338.1083558-.4919942.5469386-.8498081 1.0457191-.8498081.0791169 0 .1582339.0086013.2356308.0275241.8599664.1875083 21.0278977 4.7978034 27.6375992 24.5515417.1891926.564245-.1169554 1.1766574-.6810934 1.3658859-.1100757.0361254-.2253112.0550483-.3422666.0550483z" fill="#3f3f3f"/><path d="m57.990005 57c-.1930449 0-.3812636-.0586766-.5453517-.1725782-6.1211304-4.2178119-9.6956774-11.9803806-10.3375515-22.4489759-.4793947-7.8143422.8027448-14.2549616.8574408-14.5259095.0997399-.4935737.516395-.8525364.9893549-.8525364.0707831 0 .1415662.0086289.2107406.024161.543743.1259821.889615.7041191.7721794 1.2874335-.04987.25369-4.9017304 25.3914347 8.5985392 34.695127.2268276.1570462.3844809.3969299.4407857.6799582.0579134.2830283.0096522.5729597-.1367401.816295-.18661.3106408-.5035253.4970253-.8493973.4970253z" fill="#3f3f3f"/><path d="m54.8353236 20c-.3095561 0-.6051209-.1267641-.8132406-.349869l-3.9437796-4.2170202-5.8343454.7572044c-.0472204.0067608-.0944408.008451-.1434101.008451-.36727 0-.7083063-.1740894-.9129282-.4664921-.2343532-.3380376-.2500933-.7673455-.0419737-1.1189047l2.9259172-4.93873068-2.544656-5.12803177c-.1801372-.36170033-.1311678-.79945914.1259211-1.1138342.2063707-.25521845.5281692-.40733541.860461-.40733541.0752029 0 .1521547.00845094.2256087.02366263l5.7626403 1.16961042 4.2620802-3.9246176c.2063708-.18930111.4739532-.29409279.7572757-.29409279.1294189 0 .25534.02197245.3777634.06591735.3952524.14028564.6698304.47832333.7153019.88396856l.6313545 5.65706076 5.1785062 2.70092116c.3707678.19268148.5911297.56621313.5753896.97185837-.0157402.4056452-.2640846.7605848-.6470947.9279135l-5.3743835 2.33246-1.061585 5.5911434c-.0752029.4005747-.3742656.7183301-.7782625.8281924-.0996875.027043-.201124.0405645-.3025605.0405645zm-4.3285386-6.7506127c.3095561 0 .605121.1267641.8132406.3481788l2.8402209 3.0355785.7642713-4.0243387c.0647094-.3431083.3008115-.6321305.6296056-.7757965l3.8720745-1.6800473-3.7304133-1.94540696c-.3165517-.16563847-.529918-.47325277-.5683939-.8197414l-.4547152-4.07504437-3.0710763 2.82768529c-.2063707.18930111-.475702.2924026-.7590245.2924026-.0752029 0-.1504058-.00845094-.2238598-.02197245l-4.1484014-.84171385 1.8328519 3.69306178c.1556525.31268486.1416612.68114595-.0384759.98537986l-2.105681 3.5578467 4.2043663-.5459309c.0437227-.0084509.092692-.0101411.1434102-.0101411z" fill="#4c698f" fill-rule="nonzero"/><g fill="#3f3f3f"><path d="m83.2091332 31c-.1374129 0-.2764424-.0357433-.3993056-.1007311-.2861421-.1543461-.457504-.4516653-.4478043-.7782291l.1228633-3.9138911-3.1378631-2.3103169c-.2586595-.1900893-.3896059-.5182778-.3346407-.8334687.0549651-.3168156.2893753-.5800162.5981501-.6709992l3.7376298-1.098294 1.2237827-3.7108043c.1018472-.3103168.3653566-.5312753.688681-.5767668.033949-.0048741.0727479-.0064988.1115469-.0064988.2845254 0 .5496514.1397238.7064637.3720552l2.1840562 3.2315191 3.8944421.0194964c.3200912.0016247.6175496.1900893.7581957.4792851s.1034638.6417547-.0921475.8952072l-2.3877505 3.0917952 1.1849839 3.7303006c.0969973.3070674.0113163.6498782-.218244.8724614-.1584289.1543461-.3685898.2388302-.5884504.2388302-.0969973 0-.1939946-.0162469-.286142-.0503655l-3.660032-1.3208773-3.1621124 2.2794476c-.1471126.1056052-.3184745.1608448-.4963029.1608448zm1.6069221-8.7457352c-.0872975.2648254-.299075.4711617-.5674342.5491471l-2.5138471.7392364 2.1113082 1.5564581c.2263271.1657189.3556568.4337937.3459571.7132413l-.0840643 2.6352559 2.129091-1.5337125c.1454959-.1039805.3152412-.1608448.4946863-.1608448.0969973 0 .1939946.016247.286142.0503656l2.4621152.8870836-.7986112-2.511779c-.085681-.2680747-.0339491-.5588952.1374128-.7814785l1.6069222-2.0812348-2.6205441-.0129975c-.2796756-.0016247-.5399517-.1413485-.696764-.3736799l-1.4695093-2.1754671z" fill-rule="nonzero"/><path d="m61.088546 50c-.6006969 0-1.088546-.4894308-1.088546-1.0920751 0-7.5835642 1.9809106-13.2581743 5.8906482-16.867073 3.9496684-3.6472172 8.6371869-4.0408519 10.4670552-4.0408519.3993072 0 .631947.0191592.6406276.020901.2916678.0243844.5555577.1602406.7430584.3831842.1875008.2229435.2777789.5051065.2552094.7977199-.0468752.5712928-.5086826 1.003246-1.0711848 1.003246-.0329862 0-.0642364-.0017418-.0972226-.0034835l-.0190973-.0017418c-.0329862-.0017417-.1718757-.0104505-.4027794-.0104505-1.2482688 0-5.5902998.2525533-9.0729524 3.49046-3.4201524 3.1804291-5.1545343 8.3029056-5.1545343 15.2280896-.0017361.6026443-.4913213 1.0920751-1.090282 1.0920751z"/></g></g></svg>