<svg height="64" viewBox="0 0 64 64" width="64" xmlns="http://www.w3.org/2000/svg"><g fill="none" fill-rule="evenodd"><path d="m21.6362704 64c-.2933779 0-.5768349-.1202651-.7780893-.3300298l-9.5850975-9.998784h-10.20303354c-.59100778 0-1.07005006-.4740682-1.07005006-1.0558156v-33.5595549c0-.5831459.48045956-1.0558157 1.07005006-1.0558157h19.04122184v2.1130297h-17.97117179v31.4465252h9.59360109c.2919607 0 .5754177.1202651.7780894.3300298l8.0544298 8.4017754.0042518-7.6773879c0-.5831459.4804596-1.0572141 1.0700501-1.0572141h23.2179603s0-14.4695689 0-16.0469995h2.1415174v17.1042136c0 .5831458-.4804596 1.0558156-1.0700501 1.0558156h-23.2179603l-.0056691 9.2729981c0 .4349122-.2664496.8208792-.6746276.9816988-.1261383.0503435-.2593631.0755153-.3954225.0755153z" fill="#4c698f"/><g fill-rule="nonzero"><path d="m29.8896848 46c-.1434161 0-.2825724-.0284249-.4146288-.0838534-.3990092-.1677069-.6574422-.5571279-.6574422-.9906075v-8.6695915h-8.7455429c-.5921239 0-1.0720709-.4818019-1.0720709-1.0730396v-34.10986839c0-.59265896.4813669-1.07303961 1.0720709-1.07303961h42.8558582c.5921239 0 1.0720709.48180189 1.0720709 1.07303961v34.10986839c0 .592659-.4813669 1.0730396-1.0720709 1.0730396h-17.1304156l-2.4295541.0014212h-3.1196555l-9.6060395 9.4356424c-.2030545.1989742-.4700073.3069888-.7525796.3069888zm-8.7455429-11.8901316h8.7455429c.5921239 0 1.0720709.4818019 1.0720709 1.0730396v7.184391l8.0966205-7.951863c.2016345-.197553.4685873-.3069889.7511596-.3069889h22.0449024v-.2842489-31.67954023h-40.7102963z" fill="#3f3f3f"/><path d="m42.0169281 29c-.2721578 0-.5294215-.1062601-.7257543-.2983458-.2965302-.2915342-7.2873311-7.1589361-9.5796856-9.5906584-1.1021716-1.1674992-1.7101262-2.7464158-1.7114802-4.446578-.002708-1.7737269.6824257-3.4398314 1.9294773-4.69451835 1.2470517-1.25468699 2.9057251-1.94537788 4.6713661-1.94537788 2.0581092.00272462 4.0268531.98767434 5.2739047 2.63334413l.1083215.1430425.1069676-.1444048c1.2402815-1.66337982 3.2144415-2.6565034 5.2806747-2.6565034 3.6558518.00544924 6.6252158 2.9889069 6.6292779 6.652157.001354 1.7042491-.6120167 3.2940642-1.7263745 4.4724619-2.0635252 2.1783328-7.774778 7.8373662-9.4754261 9.5198183l-.0528068.0517678c-.1963327.1975349-.4549504.303795-.7284623.303795zm-5.4160767-18.8829711c-1.2104931 0-2.3478692.4727213-3.2022553 1.3323386-.8530321.8582549-1.3215227 1.9998703-1.3201687 3.213688.001354 1.1606876.4062058 2.2301005 1.1400842 3.0093415 1.8875027 2.0012326 7.137035 7.1834577 8.7022812 8.7242297l.0947813.0939993.0947813-.0939993c1.9958243-1.9780733 6.8364428-6.7870257 8.6575986-8.7092443.7447106-.7874148 1.1549784-1.8636393 1.1549784-3.0284139-.0027081-2.5134609-2.043215-4.561012-4.5467964-4.5637366-2.0621712 0-3.8603087 1.3963672-4.377544 3.3948751-.1191537.457736-.5307755.779241-1.0006201.7819657-.4725527 0-.8855286-.3174181-1.0073903-.7724295-.5334836-1.9876095-2.3356831-3.3785274-4.3829601-3.381252h-.0067701z" fill="#ecd925"/></g></g></svg>