<svg height="68" viewBox="0 0 71 68" width="71" xmlns="http://www.w3.org/2000/svg"><g fill="none" fill-rule="evenodd"><path d="m44.9053817 33h-17.8107634c-.6043998 0-1.0946183.4988933-1.0946183 1.1139885s.4902185 1.1139885 1.0946183 1.1139885h3.4497982v11.772023h2.1892365v-11.772023h6.5281267v11.772023h2.1892365v-11.772023h3.4543655c.6043998 0 1.0946183-.4988933 1.0946183-1.1139885s-.4902185-1.1139885-1.0946183-1.1139885z" fill="#ecd925"/><path d="m36.0891489 16.7763556c-9.672617 0-17.5430425 7.8759111-17.5430425 17.5560888 0 5.5729778 2.6360638 10.7757334 7.0848936 14.0835556v11.8576889c0 .5999111.4864255 1.0864889 1.0861489 1.0864889h1.7447873c.530234 3.7415111 3.7433617 6.6307555 7.6272127 6.6307555 3.8853617 0 7.1015107-2.8892444 7.6317447-6.6307555h1.5378298c.5997234 0 1.0861489-.4865778 1.0861489-1.0864889v-11.7065778c4.5727022-3.3032889 7.2933617-8.5846222 7.2933617-14.2346667-.0015106-9.6801777-7.8734468-17.5560888-17.5490851-17.5560888zm0 49.0431111c-2.6844042 0-4.9277021-1.9191111-5.4322553-4.4592889h10.8705532c-.5075745 2.5386666-2.752383 4.4592889-5.4382979 4.4592889zm8.0834256-6.6322667h-16.3692766v-10.2453333h16.3692766zm-4.9488511-12.4168h-6.477617zm-8.6499149 0h-3.5152553c-3.9775106-2.8937778-6.3416596-7.4981333-6.3416596-12.4364444 0-8.4818667 6.8960638-15.3831112 15.3707447-15.3831112 8.4777021 0 15.3767872 6.9012445 15.3767872 15.3831112 0 4.9307555-2.3626383 9.5381333-6.3401489 12.4364444h-3.729766z" fill="#3f3f3f" fill-rule="nonzero"/><g fill="#4c698f"><path d="m35.9849149 13.1270222c.5997234 0 1.0861489-.4865778 1.0861489-1.0864889v-10.95404441c0-.59991111-.4864255-1.08648889-1.0861489-1.08648889s-1.0861489.48657778-1.0861489 1.08648889v10.95404441c0 .5999111.4864255 1.0864889 1.0861489 1.0864889z"/><path d="m12.0684894 33.116h-10.95061706c-.5997234 0-1.08614894.4865778-1.08614894 1.0864889s.48642554 1.0864889 1.08614894 1.0864889h10.95061706c.5997234 0 1.0861489-.4865778 1.0861489-1.0864889s-.4849149-1.0864889-1.0861489-1.0864889z"/><path d="m69.8911915 33.116h-10.9460851c-.5997234 0-1.086149.4865778-1.086149 1.0864889s.4864256 1.0864889 1.086149 1.0864889h10.9460851c.5997234 0 1.0861489-.4865778 1.0861489-1.0864889s-.4864255-1.0864889-1.0861489-1.0864889z"/><path d="m18.7001915 18.6803556c.2054468.1798222.4607447.2674666.7145319.2674666.3021277 0 .6042553-.1254222.818766-.3717333.3942766-.4518222.3474468-1.1378667-.1042341-1.5322667l-8.2480851-7.20195553c-.4516808-.3944-1.1375106-.34755556-1.5317872.10426666-.39427662.45182227-.3474468 1.13786667.104234 1.53226667z"/><path d="m50.694 18.9493333c.2537872 0 .5075745-.0876444.7130213-.2674666l8.252617-7.2019556c.4516808-.3944.4985106-1.0804444.104234-1.53377777-.3927659-.45182222-1.0801063-.50017777-1.5317872-.10426666l-8.252617 7.20195553c-.4516809.3944-.4985107 1.0804445-.1042341 1.5337778.2145107.2463111.5151277.3717333.818766.3717333z"/></g></g></svg>