<svg height="12" viewBox="0 0 12 12" width="12" xmlns="http://www.w3.org/2000/svg"><path d="m6.83333333 12.8333333v4.0001925c0 .5521785-.45542399.9998075-1.00795587.9998075h.34924508c-.55667866 0-1.00795587-.4437166-1.00795587-.9998075v-4.0001925h-4.00019251c-.55217843 0-.99980749-.455424-.99980749-1.0079558v.349245c0-.5566786.44371664-1.0079558.99980749-1.0079558h4.00019251v-4.00019254c0-.55217843.45542399-.99980749 1.00795587-.99980749h-.34924508c.55667866 0 1.00795587.44371664 1.00795587.99980749v4.00019254h4.00019247c.5521785 0 .9998075.455424.9998075 1.0079558v-.349245c0 .5566786-.4437166 1.0079558-.9998075 1.0079558z" fill="#ecd925" fill-rule="evenodd" transform="translate(0 -6)"/></svg>