<svg height="69" viewBox="0 0 55 69" width="55" xmlns="http://www.w3.org/2000/svg"><g fill="none" fill-rule="evenodd"><path d="m0 68.3730972v-67.74619437c0-.34660493.28092819-.62690283.62831251-.62690283h53.74337499c.3473843 0 .6283125.2802979.6283125.62690283v67.74619437c0 .3466049-.2809282.6269028-.6283125.6269028h-53.74337499c-.34738432 0-.62831251-.2802979-.62831251-.6269028zm2.5464781-1.2884662h49.9040231c.3473843 0 .6283125-.2802979.6283125-.6269028v-63.91545638c0-.34660493-.2809282-.62690283-.6283125-.62690283h-49.9040231c-.34738432 0-.62831251.2802979-.62831251.62690283v63.91545638c0 .3466049.28092819.6269028.62831251.6269028z" fill="#3f3f3f" fill-rule="nonzero"/><path d="m33.6671653 60c-.3577369 0-.6850281-.1972185-.8540017-.5152143l-5.3112511-10.0382699-5.3097289 10.0382699c-.1674513.3179958-.4947425.5152143-.8540016.5152143-.0456686 0-.0943817-.0030577-.1430948-.0107018-.4034054-.0596242-.727652-.3715046-.8068109-.7751146l-.957517-4.9533955-5.2549266 1.166494c-.0669805.0152883-.1370056.0229324-.2070307.0229324-.3242466 0-.625659-.1605267-.8052885-.4311288-.2222536-.3348129-.2176867-.7659417.0121782-1.0961681l6.5991039-9.484835-.1248273-.175815c-1.16607-1.6480742-1.7841176-3.5789811-1.7841176-5.5848005 0-5.3356019 4.3217661-9.6774671 9.6360618-9.6774671 5.3127734 0 9.6345394 4.3418652 9.6345394 9.6774671 0 2.0058194-.6165252 3.9367263-1.7825953 5.5832717l-.1248273.1758149 6.5960593 9.4848351c.229865.3302263.2329096.7613552.010656 1.096168-.1796296.2690734-.4810419.4311289-.8052886.4311289-.070025 0-.1400501-.0076441-.2085529-.0229324l-5.2473152-1.1649652-.9605616 4.9533955c-.0776365.40361-.4018831.7139616-.8068109.7751146-.0456685.0076441-.091337.0107018-.1400501.0107018zm-.0258789-13.8756226c-1.2132608 1.009025-2.6624758 1.710756-4.1938942 2.0256941l-.3988385.0825566 4.1908496 7.9193175.6287035-3.2395818c.0487131-.2553139.2024639-.4846378.4186283-.6268186.1567953-.1039602.3409918-.1574691.5312773-.1574691.0700251 0 .1400502.0076442.208553.0229324l3.7935334.8439119-4.9245909-7.081521zm-13.4493848 6.0021699c.1902856 0 .3729598.0550377.5312774.1589979.2161644.1437096.3699151.3715047.4186282.6268186l.625659 3.2365241 4.1893274-7.9177886-.3988386-.0825566c-1.5298961-.3164669-2.9806333-1.0166691-4.1938942-2.0256942l-.2542215-.2109779-4.9261131 7.0799921 3.8011447-.8439118c.0669805-.0137595.1370056-.0214036.2070307-.0214036zm7.3100109-21.1849386c-4.2456519 0-7.6997157 3.4704345-7.701238 7.7343296 0 4.2623662 3.4540638 7.729743 7.701238 7.729743 4.2456518 0 7.6997157-3.4673768 7.6997157-7.729743 0-4.2654239-3.4540639-7.7343296-7.6997157-7.7343296z" fill="#4c698f" fill-rule="nonzero"/><path d="m11.9722953 18c-.5359108 0-.9722953-.4488189-.9722953-1s.4363845-1 .9722953-1h30.0554094c.5359108 0 .9722953.4488189.9722953 1s-.4363845 1-.9722953 1z" fill="#ecd925"/></g></svg>