<svg height="50" viewBox="0 0 91 50" width="91" xmlns="http://www.w3.org/2000/svg"><g fill="none" fill-rule="evenodd"><path d="m25.1317654 50c-.6234451 0-1.1317654-.516591-1.1317654-1.15018 0-12.0471905 9.6456875-21.84982 21.5-21.84982s21.5 9.8008296 21.5 21.84982c0 .633589-.5083203 1.15018-1.1317654 1.15018zm20.3700058-20.69964c-4.8653514 0-9.5128512 1.8575677-13.0852624 5.232509-3.5529286 3.3551416-5.7172749 7.8946627-6.0927589 12.7797777l-.0301096.3887933h38.4144905l-.0301095-.3887933c-.375484-4.885115-2.5398303-9.4246361-6.0927589-12.7797777-3.5706401-3.3749413-8.2181399-5.232509-13.0834912-5.232509z" fill="#4c698f" fill-rule="nonzero"/><path d="m44.5 25c-6.8923907 0-12.5-5.6076093-12.5-12.5 0-6.89239069 5.6076093-12.5 12.5-12.5s12.5 5.60760931 12.5 12.5c0 6.8923907-5.6076093 12.5-12.5 12.5zm0-22.73211244c-5.6431005 0-10.2321124 4.59078649-10.2321124 10.23211244 0 5.641326 4.5907864 10.2321124 10.2321124 10.2321124s10.2321124-4.5907864 10.2321124-10.2321124c0-5.64132595-4.5890119-10.23211244-10.2321124-10.23211244z" fill="#4c698f" fill-rule="nonzero"/><path d="m1.12811169 50c-.62143242 0-1.12811169-.5256945-1.12811169-1.1704488 0-9.2793324 7.27711486-16.8295512 16.2207985-16.8295512 2.8953101 0 5.7376572.8022794 8.2216215 2.3170856.2595186.1593569.4448891.4121298.5208027.7143584.0759136.3022285.0335433.6172789-.1200494.8865371-.2012594.3571792-.5755312.5769818-.9727536.5769818-.1994939 0-.3972224-.0567824-.5702349-.1630203-2.1397048-1.3059937-4.5883604-1.9947084-7.0811518-1.9947084-7.14294191 0-13.11187091 5.5518469-13.88336513 12.9134018l-.04237039.4066348h17.60136712c.6214324 0 1.1281117.5256945 1.1281117 1.1704487 0 .6447543-.5066793 1.1704488-1.1281117 1.1704488h-18.76655291z" fill="#ecd925"/><path d="m15.5 29c-5.2373148 0-9.5-4.2609259-9.5-9.5 0-5.2373148 4.2609259-9.5 9.5-9.5 5.2373148 0 9.5 4.2609259 9.5 9.5s-4.2626852 9.5-9.5 9.5zm0-16.7516667c-3.9987963 0-7.25166667 3.2528704-7.25166667 7.2516667s3.25287037 7.2516667 7.25166667 7.2516667 7.2516667-3.2528704 7.2516667-7.2516667-3.2528704-7.2516667-7.2516667-7.2516667z" fill="#ecd925" fill-rule="nonzero"/><g fill="#3f3f3f"><path d="m71.1053354 49.9981683c-.6214324 0-1.1281117-.5256945-1.1281117-1.1704488 0-.6447542.5066793-1.1704487 1.1281117-1.1704487h17.5996017l-.0423704-.4066348c-.7714942-7.3615549-6.7404232-12.9134018-13.8833652-12.9134018-2.4910259 0-4.9396815.6905464-7.0793863 1.9947084-.1730125.1062379-.370741.1630203-.5702349.1630203-.3989879 0-.7714942-.2216343-.9727536-.5769818-.1535927-.2692582-.195963-.5843086-.1200494-.8865371.0759136-.3022286.2595186-.5568332.5208027-.7143584 2.4874951-1.5166379 5.3298423-2.3170856 8.2216215-2.3170856 8.9436836 0 16.2207985 7.5502188 16.2207985 16.8295512 0 .6447543-.5066793 1.1704488-1.1281117 1.1704488h-18.7665529z"/><path d="m75.5 29c-5.2373148 0-9.5-4.2609259-9.5-9.5 0-5.2373148 4.2626852-9.5 9.5-9.5s9.5 4.2609259 9.5 9.5-4.2626852 9.5-9.5 9.5zm0-16.7516667c-3.9987963 0-7.2516667 3.2528704-7.2534259 7.2516667 0 3.9987963 3.2528703 7.2516667 7.2534259 7.2516667 3.9987963 0 7.2516667-3.2528704 7.2516667-7.2516667s-3.2528704-7.2516667-7.2516667-7.2516667z" fill-rule="nonzero"/></g></g></svg>