<svg height="53" viewBox="0 0 114 53" width="114" xmlns="http://www.w3.org/2000/svg"><g fill="#3f3f3f" fill-rule="evenodd"><path d="m53.7088847.64364641 4.8260869 14.36464089v-.0718232l5.0359169-14.29281769h13.4291115l-.4196597.50276243c-.3497165.64640884-.7693762 2.15469613-.7693762 2.87292818v19.53591158c0 .7900553.6294896 2.5138122.8393195 2.9447514-3.7769377 0-7.2041588 0-11.4007562 0 .6294896-1.2209945.8393195-1.2209945.8393195-2.9447514 0-7.2541436.0699433-16.01657457 0-16.95027622l-7.0642722 19.89502762h-6.7844991l-6.6446125-20.18232044v16.73480664c0 1.4364641.2797732 2.1546961 1.1190927 3.3756906-5.9451796 0-2.5179584 0-6.5047259 0 .2797731-.5745856.979206-1.7955801.979206-2.7292818-.0699433-9.839779.0699433-14.65193367 0-20.11049721 0-1.22099448-.3497164-2.08287293-1.1890359-3.08839779h13.7088847z"/><path d="m90.4294479.57202216c-.7055215 1.51246537-.917178 3.81717452-.917178 4.53739612v16.78116342c3.8803681.0720222 6.5613497-.0720221 8.0429448 0 2.3282209.1440443 3.2453983 0 4.4447853-.8642659l-.141104.8642659c-.141105.3601108-.776074 3.9612189-.776074 4.6094183h-22.082822c.0705521-.432133.7760736-2.7368421.7760736-3.3850416v-19.80609413s-.0705521-1.08033241-.7760736-2.80886427h11.4294479z"/><path d="m102 .5h11.928144c-.646707 1.15235457-.790419 1.58448753-.790419 3.81717452v18.36565098c0 .9362881.215568 2.7368421.862275 3.8171745h-11.856287l.502994-.8642659c.215568-.432133.431137-1.0803324.431137-1.7285319v-20.88642658c0-.28808864-.215569-1.29639889-.646706-2.08864266z"/><path d="m2.825 31.5-2.825 6h113v-6z"/><path d="m20 42.9379085c-.0727273-.2156863-.0727273-.503268-.0727273-.7189543 0-.2156862.0727273-.5032679.0727273-.7189542h-8v11h8c-.0727273-.2156863-.0727273-.503268-.0727273-.7189542 0-.2156863.0727273-.503268.0727273-.7189543-1.2363636.2156863-2.6909091.2875817-4.8727273.2875817v-4.0980392h2.1818182c.9454546 0 1.8181818.0718954 2.6181818.1437908-.0727272-.2156862-.0727272-.5032679-.0727272-.7189542s.0727272-.4313726.0727272-.7189543c-.8.0718955-1.6727272.1437909-2.6181818.1437909h-2.1818182v-3.4509804c2.1818182 0 3.6363637.1437908 4.8727273.2875817z"/><path d="m23.7016129 47.9625c1.3790323.48125 2.6129032.89375 2.6129032 1.99375 0 1.03125-1.1612903 1.58125-2.4677419 1.58125-1.4516129 0-2.6129032-.61875-2.9032258-1.71875h-.3629032c-.1451613.6875-.3629033 1.30625-.5806452 1.99375 1.016129.48125 2.25.6875 3.4112903.6875 3.2661291 0 5.5887097-1.44375 5.5887097-3.36875 0-.4125-.0725806-.825-.2903226-1.1-1.1612903-2.3375-6.0967742-2.26875-6.0967742-4.125 0-.89375.6532258-1.5125 2.3225807-1.5125 1.1612903 0 1.9596774.55 2.3951613 1.375h.2903225c.217742-.55.4354839-1.03125.6532258-1.5125-.4354838-.34375-1.8145161-.75625-3.3387096-.75625-3.1935484 0-4.8629033 1.44375-4.8629033 3.23125 0 1.99375 1.9596775 2.6125 3.6290323 3.23125"/><path d="m32.5 41.6419355c-.4772727 0-.9545455-.0709678-1.5-.0709678v10.9290323c.4772727 0 .9545455-.0709677 1.5-.0709677.4772727 0 .9545455.0709677 1.5.0709677v-11c-.5454545.0709677-1.0227273.1419355-1.5.1419355z"/><path d="m52 41.6419355v10.8580645h8c-.0727273-.2129032-.1454545-.4967742-.1454545-.7096774s.0727272-.4967742.1454545-.7096774c-1.3090909.1419354-2.6909091.2129032-4.8727273.2129032v-4.0451613h2.1818182c.9454546 0 1.8181818.0709677 2.6181818.1419355-.0727272-.2129032-.0727272-.4967742-.0727272-.7096774 0-.2129033.0727272-.4258065.0727272-.7096775-.8.0709678-1.6727272.1419355-2.6181818.1419355h-2.1818182v-3.4064516c2.1090909 0 3.5636364.0709678 4.8727273.2129032-.0727273-.2129032-.1454545-.4967742-.1454545-.7096774s.0727272-.4967742.1454545-.7096774h-8z"/><path d="m73.1920904 41.5709677c-.2937853 0-.5875706 0-.8813559-.0709677v7.5225806c-.3672317-.3548387-.8079096-.6387096-1.1751413-.9935483-2.6440678-2.2-5.3615819-4.3290323-8.0056497-6.4580646h-2.1299435v10.9290323c.2937853 0 .5875706-.0709677.8813559-.0709677s.5875707 0 .881356.0709677v-7.8064516l2.2768361 1.8451613c.5875706.4967742 1.1751413.9225806 1.7627119 1.4193548 1.7627119 1.4193549 3.5254237 2.9806452 5.3615819 4.4709678h1.8361582v-10.9290323c-.220339.0709677-.5141243.0709677-.8079096.0709677z"/><path d="m75 41.5c.0733333.2142857.0733333.4285714.0733333.6428571 0 .2142858-.0733333.5-.0733333.7142858 1.1-.1428572 2.42-.2142858 3.96-.2142858v9.8571429c.5133333 0 1.0266667-.0714286 1.6133333-.0714286.5133334 0 1.0266667.0714286 1.6133334.0714286v-9.8571429c1.32 0 2.5666666.1428572 3.8133333.2142858-.0733333-.2142858-.0733333-.4285715-.0733333-.7142858 0-.2142857.0733333-.4285714.0733333-.6428571z"/><path d="m88.5 41.6419355c-.4772727 0-.9545455-.0709678-1.5-.0709678v10.9290323c.4772727 0 .9545455-.0709677 1.5-.0709677.4772727 0 .9545455.0709677 1.5.0709677v-11c-.4772727.0709677-1.0227273.1419355-1.5.1419355z"/><path d="m101.681081 48.1-3.3729729-6.6c-.2810811 0-.4918919.0709677-.772973.0709677-.281081 0-.4918919 0-.7729729-.0709677l-3.4432433 6.6-2.3189189 4.4c.3513514 0 .6324324-.0709677.9837838-.0709677.3513513 0 .6324324 0 .9837838.0709677.3513513-1.1354839.9135135-2.0580645 1.4054054-3.3354839h4.7081081c.5621621 1.0645162.9837839 2.1290323 1.4054049 3.3354839.562163 0 1.124325-.0709677 1.756757-.0709677.562162 0 1.194595.0709677 1.756757.0709677zm-6.8162161.1419355.0702702-.1419355 1.8270271-3.5483871 1.7567567 3.5483871.0702703.1419355z"/><path d="m113 51.1339869c-1.454545.1437909-2.981818.2156863-4.8.2156863v-9.8496732c-.509091 0-1.018182.0718954-1.6.0718954-.509091 0-1.018182-.0718954-1.6-.0718954v11h8c-.072727-.2156863-.072727-.503268-.072727-.7189542 0-.1437909.072727-.4313726.072727-.6470589z"/><path d="m10.1986755 51.4291391c-1.01986755-1.1422517-1.96688742-2.2845033-2.91390729-3.4981457-.29139073-.3569537-.50993377-.6425166-.8013245-.9994702 1.96688742-.2855629 3.27814569-1.2850331 3.27814569-2.8556292 0-1.0708609-.65562914-1.7847682-1.82119205-2.2845033-.87417218-.3569536-2.40397351-.2855629-3.42384106-.2855629h-4.51655629v10.9941722c.50993378 0 1.01986755-.0713907 1.60264901-.0713907.50993377 0 1.01986755.0713907 1.602649.0713907v-5.1401325h.14569537c.14569536.2141722.36423841.4283444.50993377.6425166.29139073.4283444.65562914.8566887.87417219 1.1422517l2.47682119 3.3553642c.65562914 0 1.2384106-.0713907 1.89403973-.0713907.65562914 0 1.31125824.0713907 1.89403974.0713907zm-6.99337749-4.8545696v-4.2834437c1.31125828 0 2.84105961-.1427814 3.20529802 1.2136424.07284768.2855629.07284768.4997351.07284768.785298 0 1.6419868-1.09271523 2.4272848-3.2781457 2.2845033z"/><path d="m40 26.4281768c-2.2233607-1.7955801-1.2192623-1.5801105-11.5471311-25.9281768h-11.9774591c.7172132.86187845 1.0040984 1.50828729.8606558 1.79558011-1.5061476 2.94475138-3.0840164 6.32044199-3.0840164 6.32044199-9.53893445 19.8232044-8.39139346 16.3038674-9.2520492 17.8121547h6.670082c-.3586066-.718232-.8606558-.718232-.4303279-1.5082873 1.8647541-3.2320442 2.6536885-5.4585635 2.6536885-5.4585635h11.4036885c.3586066.7900552 1.7930328 3.7348066 1.7930328 5.0994475 0 1.0055248 0 .9337016-.4303278 1.9392265zm-23.7397541-11.7790055c1.0040984-1.8674033 3.0122951-5.961326 3.8012295-7.6132597 1.5061476 3.8066298 2.2233607 4.9558011 2.7254098 6.4640884.0717214.2154696.5020492 1.1491713.5020492 1.1491713-.1434426 0-6.8852459 0-7.0286885 0z"/><path d="m49.8602151 48.0424837c.1397849-.4313726.1397849-.8627451.1397849-1.3660131 0-2.6601307-1.7473118-5.0326798-6.0806452-5.1764706h-6.9193548v11h5.6612903c3.5645162-.0718954 6.5-1.6535948 7.1989248-4.4575163zm-3.2849463 0c-.4892473 2.6601307-2.3763441 3.5228758-4.8225806 3.5228758h-1.7473119v-9.2026144h1.9569893c2.8655914 0 4.6129032 1.2222222 4.6129032 4.2418301.0698925.5032679.0698925 1.0065359 0 1.4379085z"/></g></svg>